<?xml version="1.0" encoding="utf-8"?>
<!-- Generator: Adobe Illustrator 27.5.0, SVG Export Plug-In . SVG Version: 6.00 Build 0)  -->
<svg version="1.1" id="Layer_1" xmlns="http://www.w3.org/2000/svg" xmlns:xlink="http://www.w3.org/1999/xlink" x="0px" y="0px"
	 viewBox="0 0 25 25" style="enable-background:new 0 0 25 25;" xml:space="preserve">
<g>
	
		<radialGradient id="SVGID_1_" cx="12.625" cy="12.5" r="22.3125" gradientTransform="matrix(-1 0 0 1 25 0)" gradientUnits="userSpaceOnUse">
		<stop  offset="0" style="stop-color:#FFFFFF"/>
		<stop  offset="0.2776" style="stop-color:#FDFDFD"/>
		<stop  offset="0.4152" style="stop-color:#F5F5F5"/>
		<stop  offset="0.5221" style="stop-color:#E8E8E8"/>
		<stop  offset="0.6132" style="stop-color:#D5D5D5"/>
		<stop  offset="0.6941" style="stop-color:#BDBDBD"/>
		<stop  offset="0.7679" style="stop-color:#9F9F9F"/>
		<stop  offset="0.8364" style="stop-color:#7B7B7B"/>
		<stop  offset="0.9005" style="stop-color:#525252"/>
		<stop  offset="0.9591" style="stop-color:#252525"/>
		<stop  offset="1" style="stop-color:#000000"/>
	</radialGradient>
	<rect style="fill:url(#SVGID_1_);" width="25" height="25"/>
	<g>
		<defs>
			<rect id="SVGID_00000160191741510229392680000012575759007389528734_" width="25" height="25"/>
		</defs>
		<clipPath id="SVGID_00000067948713924671623760000008724078960196964752_">
			<use xlink:href="#SVGID_00000160191741510229392680000012575759007389528734_"  style="overflow:visible;"/>
		</clipPath>
		<defs>
			<filter id="Adobe_OpacityMaskFilter" filterUnits="userSpaceOnUse" x="-5.813" y="-1.02" width="36.625" height="27.039">
				<feColorMatrix  type="matrix" values="1 0 0 0 0  0 1 0 0 0  0 0 1 0 0  0 0 0 1 0"/>
			</filter>
		</defs>
		
			<mask maskUnits="userSpaceOnUse" x="-5.813" y="-1.02" width="36.625" height="27.039" id="SVGID_00000023986181571817421830000011818860693615635895_">
			<g style="filter:url(#Adobe_OpacityMaskFilter);">
				
					<radialGradient id="SVGID_00000160148227186125119960000014844881129967575956_" cx="34.0625" cy="37.0625" r="50.4094" gradientTransform="matrix(-1 0 0 1 25 0)" gradientUnits="userSpaceOnUse">
					<stop  offset="0.2294" style="stop-color:#FFFFFF"/>
					<stop  offset="0.332" style="stop-color:#B8B8B8"/>
					<stop  offset="0.4355" style="stop-color:#777777"/>
					<stop  offset="0.5299" style="stop-color:#444444"/>
					<stop  offset="0.6116" style="stop-color:#1F1F1F"/>
					<stop  offset="0.6775" style="stop-color:#080808"/>
					<stop  offset="0.7192" style="stop-color:#000000"/>
				</radialGradient>
				
					<rect style="clip-path:url(#SVGID_00000067948713924671623760000008724078960196964752_);fill:url(#SVGID_00000160148227186125119960000014844881129967575956_);" width="25" height="25"/>
			</g>
		</mask>
		
			<g style="clip-path:url(#SVGID_00000067948713924671623760000008724078960196964752_);mask:url(#SVGID_00000023986181571817421830000011818860693615635895_);">
			<g>
				<g style="opacity:0.25;">
					<g>
						<g>
							<g>
								<path style="fill:none;stroke:#444343;stroke-miterlimit:10;" d="M28.494,1.129"/>
							</g>
							<g>
								<path style="fill:#444343;" d="M-5.813,17.188l4.978,1.44l-4.978,2.963V17.188z M-0.949,18.643l-4.818-1.394v4.261
									L-0.949,18.643z"/>
							</g>
							<g>
								<path style="fill:#444343;" d="M-3.555,10.905l0.021,0.04l-2.278,1.359v-0.523L-3.555,10.905z M-5.768,12.224l1.976-1.179
									l-1.976,0.769V12.224z"/>
							</g>
							<g>
								<path style="fill:#444343;" d="M-3.533,10.891l2.677,7.778l-4.956-1.432v-4.986L-3.533,10.891z M-0.928,18.602l-2.632-7.643
									l-2.208,1.318v4.926L-0.928,18.602z"/>
							</g>
							<g>
								<path style="fill:#444343;" d="M18.244,17.435l3.594,5.711l-4.492-0.063L18.244,17.435z M21.754,23.1l-3.484-5.538
									l-0.871,5.475L21.754,23.1z"/>
							</g>
							<g>
								<path style="fill:#444343;" d="M15.443,17.091l2.84,0.389l-0.003,0.021l-0.9,5.657L15.443,17.091z M18.23,17.518
									l-2.721-0.371l1.855,5.814L18.23,17.518z"/>
							</g>
							<g>
								<path style="fill:#444343;" d="M15.474,17.037l1.926,6.032l-0.015,0.009l-4.093,2.495L15.474,17.037z M17.346,23.05
									l-1.867-5.849l-2.115,8.274L17.346,23.05z"/>
							</g>
							<g>
								<path style="fill:#444343;" d="M9.399,10.565l0.025,0.027l6.101,6.546l-8.486,0.638L9.399,10.565z M15.428,17.1l-6.01-6.446
									l-2.314,7.071L15.428,17.1z"/>
							</g>
							<g>
								<path style="fill:none;stroke:#444343;stroke-miterlimit:10;" d="M4.543-1.02"/>
							</g>
							<g>
								<polygon style="fill:#444343;" points="15.18,-0.147 18.592,5.351 18.554,5.375 15.141,-0.123 								"/>
							</g>
							<g>
								<path style="fill:none;stroke:#444343;stroke-miterlimit:10;" d="M15.16-0.136"/>
							</g>
							<g>
								<path style="fill:#444343;" d="M15.148-0.197l3.513,5.658l-3.968-3.122l0.002-0.013L15.148-0.197z M18.485,5.265
									l-3.313-5.338l-0.43,2.394L18.485,5.265z"/>
							</g>
							<g>
								<path style="fill:none;stroke:#444343;stroke-miterlimit:10;" d="M15.16-0.136"/>
							</g>
							<g>
								<path style="fill:#444343;" d="M9.448,10.561l-2.363,7.221l-5.878-2.811L9.448,10.561z M7.058,17.719l2.313-7.063
									L1.307,14.97L7.058,17.719z"/>
							</g>
							<g>
								<path style="fill:#444343;" d="M9.403,10.587L9.42,10.63l-8.181,4.375l-0.324-1.759l0.02-0.005L9.403,10.587z M1.273,14.936
									l7.91-4.231L0.967,13.28L1.273,14.936z"/>
							</g>
							<g>
								<path style="fill:#444343;" d="M1.267,14.949l5.842,2.794l-0.794,0.858l-5.071-3.612L1.267,14.949z M7.033,17.757
									l-5.549-2.653l4.825,3.438L7.033,17.757z"/>
							</g>
							<g>
								<path style="fill:#444343;" d="M1.238,14.929l5.145,3.665l-5.594,0.129l0.003-0.026L1.238,14.929z M6.243,18.55
									l-4.968-3.539L0.84,18.675L6.243,18.55z"/>
							</g>
							<g>
								<path style="fill:#444343;" d="M-3.72,10.809l4.682,2.439l0.001,0.012l0.327,1.769L-3.72,10.809z M0.921,13.277
									l-4.294-2.235l4.595,3.87L0.921,13.277z"/>
							</g>
							<g>
								<path style="fill:#444343;" d="M1.292,14.863l-0.458,3.859l-1.765-0.066L1.292,14.863z M0.795,18.675l0.426-3.599
									l-2.073,3.538L0.795,18.675z"/>
							</g>
							<g>
								<path style="fill:#444343;" d="M-3.595,10.854l4.881,4.111l-0.01,0.017l-2.174,3.708l-0.017-0.048L-3.595,10.854z
									 M1.226,14.976l-4.723-3.979l2.61,7.584L1.226,14.976z"/>
							</g>
							<g>
								<path style="fill:#444343;" d="M6.332,18.549l0.516,3.987l-0.042-0.025l-6.067-3.833L6.332,18.549z M6.788,22.444
									l-0.495-3.848L0.891,18.72L6.788,22.444z"/>
							</g>
							<g>
								<path style="fill:#444343;" d="M15.508,17.089L13.34,25.57l-0.029-0.031l-6.284-6.983L15.508,17.089z M13.316,25.478
									l2.129-8.331l-8.33,1.44L13.316,25.478z"/>
							</g>
							<g>
								<path style="fill:#444343;" d="M15.475,17.096l0.006,0.045l-8.434,1.458v-0.87L15.475,17.096z M7.094,18.545l7.91-1.368
									l-7.91,0.596V18.545z"/>
							</g>
							<g>
								<path style="fill:#444343;" d="M7.053,18.516l0.035,0.042l6.332,7.034l-6.625-3.087l0.001-0.017L7.053,18.516z
									 M13.235,25.457l-6.145-6.829l-0.249,3.849L13.235,25.457z"/>
							</g>
							<g>
								<path style="fill:#444343;" d="M7.094,17.691v0.903H6.261L7.094,17.691z M7.047,18.549V17.81l-0.682,0.739H7.047z"/>
							</g>
							<g>
								<path style="fill:#444343;" d="M6.287,18.549h0.808L6.84,22.491l-0.044,0.002L6.287,18.549z M7.046,18.595H6.338
									l0.473,3.658L7.046,18.595z"/>
							</g>
							<g>
								<path style="fill:#444343;" d="M30.813,0.983v2.276l-2.373-2.15L30.813,0.983z M30.767,3.156V1.032l-2.216,0.117
									L30.767,3.156z"/>
							</g>
							<g>
								<path style="fill:none;stroke:#444343;stroke-miterlimit:10;" d="M4.543-1.02"/>
							</g>
							<g>
								<path style="fill:#444343;" d="M18.795,14.729l-0.52,2.795l-2.859-0.39L18.795,14.729z M18.238,17.471l0.492-2.639
									l-3.193,2.273L18.238,17.471z"/>
							</g>
							<g>
								<path style="fill:#444343;" d="M9.315,10.543l9.493,4.233l-3.336,2.373l-0.014-0.016L9.315,10.543z M18.717,14.785
									l-9.214-4.109l5.976,6.412L18.717,14.785z"/>
							</g>
							<g>
								<path style="fill:#444343;" d="M7.377,8.032l2.19,2.738L7.17,8.785L7.377,8.032z M9.253,10.45L7.396,8.131L7.224,8.767
									L9.253,10.45z"/>
							</g>
							<g>
								<path style="fill:#444343;" d="M7.197,8.748l2.258,1.871l-0.04,0.013l-8.604,2.697L7.197,8.748z M9.362,10.6L7.196,8.805
									l-6.125,4.394L9.362,10.6z"/>
							</g>
							<g>
								<path style="fill:#444343;" d="M-5.813-0.422l3.46,3.854l-3.46-0.281V-0.422z M-2.465,3.376l-3.303-3.679V3.11L-2.465,3.376
									z"/>
							</g>
							<g>
								<path style="fill:#444343;" d="M-2.399,3.384l9.813,4.685L7.213,8.811L-2.42,3.424L-2.399,3.384z M7.359,8.094L-1.779,3.73
									l8.962,5.012L7.359,8.094z"/>
							</g>
							<g>
								<path style="fill:#444343;" d="M-2.449,3.355L7.24,8.773l-6.312,4.527l-0.01-0.029L-2.449,3.355z M7.155,8.779l-9.523-5.325
									l3.321,9.773L7.155,8.779z"/>
							</g>
							<g>
								<path style="fill:none;stroke:#444343;stroke-miterlimit:10;" d="M-2.409,3.404"/>
							</g>
							<g>
								<path style="fill:#444343;" d="M-2.417,3.308l0.029,0.088L0.98,13.31l-4.553-2.372l0.004-0.016L-2.417,3.308z M0.9,13.218
									L-2.4,3.501l-1.122,7.412L0.9,13.218z"/>
							</g>
							<g>
								<polygon style="fill:#444343;" points="-5.772,-0.377 -2.392,3.39 -2.426,3.42 -5.807,-0.347 								"/>
							</g>
							<g>
								<path style="fill:#444343;" d="M29.886,13.393l0.927,2.291v4.973l-0.021,0.002l-3.976,0.341l0.015-0.034L29.886,13.393z
									 M30.767,15.688l-0.881-2.173l-2.999,7.434l3.88-0.334V15.688z"/>
							</g>
							<g>
								<path style="fill:#444343;" d="M30.813,20.61v0.607l-2.766,1.047l-1.244-1.31L30.813,20.61z M30.767,21.187v-0.525
									L26.9,20.992l1.158,1.219L30.767,21.187z"/>
							</g>
							<g>
								<path style="fill:#444343;" d="M26.868,20.958l1.208,1.271v0.654l-1.242-1.896L26.868,20.958z M28.029,22.247l-1.02-1.073
									l1.02,1.556V22.247z"/>
							</g>
							<g>
								<path style="fill:#444343;" d="M26.859,20.945l1.234,1.882l-6.426,0.325L26.859,20.945z M28.012,22.784l-1.169-1.782
									l-4.919,2.091L28.012,22.784z"/>
							</g>
							<g>
								<path style="fill:#444343;" d="M18.2,17.45l8.712,3.524l-5.125,2.177L18.2,17.45z M26.793,20.975l-8.478-3.429l3.49,5.548
									L26.793,20.975z"/>
							</g>
							<g>
								<path style="fill:#444343;" d="M18.747,14.74L27,21.058l-8.769-3.546L18.747,14.74z M26.704,20.89l-7.926-6.067
									l-0.495,2.661L26.704,20.89z"/>
							</g>
							<g>
								<path style="fill:#444343;" d="M9.948-0.543l5.239,0.388l-0.453,2.522L9.948-0.543z M15.133-0.114l-4.999-0.371l4.567,2.778
									L15.133-0.114z"/>
							</g>
							<g>
								<polygon style="fill:#444343;" points="10.044,-0.536 15.162,-0.157 15.158,-0.112 10.04,-0.49 								"/>
							</g>
							<g>
								<path style="fill:#444343;" d="M28.512,1.089l0.006,0.037l1.332,8.884L29.815,10L20.292,6.76L28.512,1.089z M29.794,9.943
									l-1.316-8.774l-8.085,5.578L29.794,9.943z"/>
							</g>
							<g>
								<polygon style="fill:#444343;" points="28.482,1.111 28.508,1.148 20.355,6.773 20.33,6.734 								"/>
							</g>
							<g>
								<path style="fill:#444343;" d="M20.338,6.662l1.42,4.52l-3.035,3.682L20.338,6.662z M21.707,11.174l-1.359-4.328
									l-1.545,7.851L21.707,11.174z"/>
							</g>
							<g>
								<polygon style="fill:#444343;" points="18.588,5.345 20.356,6.736 20.328,6.772 18.559,5.381 								"/>
							</g>
							<g>
								<path style="fill:#444343;" d="M18.55,5.315l1.818,1.429l-0.003,0.014l-1.621,8.234L18.55,5.315z M20.317,6.763l-1.72-1.352
									l0.184,9.156L20.317,6.763z"/>
							</g>
							<g>
								<path style="fill:#444343;" d="M30.813,13.212v0.558l-1.014-0.319L30.813,13.212z M30.767,13.707v-0.436l-0.794,0.184
									L30.767,13.707z"/>
							</g>
							<g>
								<path style="fill:#444343;" d="M29.846,13.416l0.967,0.305v2.08L29.846,13.416z M30.767,13.755l-0.842-0.266l0.842,2.076
									V13.755z"/>
							</g>
							<g>
								<path style="fill:#444343;" d="M29.845,9.942l0.065,3.543l-0.03-0.009l-4.672-1.409L29.845,9.942z M29.861,13.421
									l-0.06-3.409l-4.464,2.046L29.861,13.421z"/>
							</g>
							<g>
								<path style="fill:#444343;" d="M25.243,12.029l4.673,1.41l-0.01,0.021l-3.063,7.596L25.243,12.029z M29.855,13.467
									l-4.555-1.372l1.559,8.795L29.855,13.467z"/>
							</g>
							<g>
								<path style="fill:#444343;" d="M20.264,6.703l0.086,0.029l9.535,3.243l-4.618,2.116L20.264,6.703z M29.762,9.981
									l-9.341-3.176l4.856,5.231L29.762,9.981z"/>
							</g>
							<g>
								<path style="fill:#444343;" d="M25.289,12.03l1.596,8.998l-0.047-0.036l-8.12-6.217L25.289,12.03z M26.82,20.92
									l-1.566-8.825l-6.445,2.691L26.82,20.92z"/>
							</g>
							<g>
								<path style="fill:#444343;" d="M20.291,6.665l5.05,5.439l-3.626-0.907L20.291,6.665z M25.203,12.022l-4.809-5.179
									l1.355,4.316L25.203,12.022z"/>
							</g>
							<g>
								<path style="fill:#444343;" d="M21.725,11.152l3.62,0.905l-6.659,2.78L21.725,11.152z M25.199,12.068l-3.458-0.864
									l-2.901,3.52L25.199,12.068z"/>
							</g>
							<g>
								<path style="fill:#444343;" d="M28.445,1.053l2.367,2.145v4.849L28.445,1.053z M30.767,3.218l-2.222-2.013l2.222,6.564
									V3.218z"/>
							</g>
							<g>
								<path style="fill:#444343;" d="M30.813,10.644v2.617l-0.963,0.223L30.813,10.644z M30.767,13.224v-2.302l-0.847,2.499
									L30.767,13.224z"/>
							</g>
							<g>
								<path style="fill:#444343;" d="M30.813,9.523L30.81,10.79l-0.946,2.794l-0.066-3.621L30.813,9.523z M30.767,10.779V9.591
									l-0.921,0.4l0.061,3.33L30.767,10.779z"/>
							</g>
							<g>
								<path style="fill:#444343;" d="M28.518,1.122l2.295,6.783v1.667l-1.008,0.438l-1.332-8.877L28.518,1.122z M30.767,7.912
									l-2.211-6.532l1.284,8.564l0.927-0.402V7.912z"/>
							</g>
							<g>
								<path style="fill:none;stroke:#444343;stroke-miterlimit:10;" d="M29.443-0.641"/>
							</g>
							<g>
								<path style="fill:#444343;" d="M-5.813,3.106l3.508,0.283l-3.508,1.303V3.106z M-2.513,3.42l-3.255-0.264v1.471L-2.513,3.42
									z"/>
							</g>
							<g>
								<path style="fill:#444343;" d="M-2.38,3.37l-1.147,7.587l-2.285-0.873V4.645L-2.38,3.37z M-3.564,10.894l1.127-7.454
									l-3.33,1.236v5.376L-3.564,10.894z"/>
							</g>
							<g>
								<path style="fill:#444343;" d="M-5.813,10.035l2.329,0.89l-2.329,0.907V10.035z M-3.609,10.925l-2.158-0.824v1.663
									L-3.609,10.925z"/>
							</g>
							<g>
								<path style="fill:#444343;" d="M4.683,1.988l0.007,0.017l2.743,6.125L7.377,8.102L-2.48,3.395L4.683,1.988z M7.341,8.035
									L4.655,2.041l-6.991,1.373L7.341,8.035z"/>
							</g>
							<g>
								<path style="fill:#444343;" d="M18.596,5.336v0.027l0.19,9.477l-7.654-8.355l0.043-0.008L18.596,5.336z M18.738,14.721
									L18.551,5.39l-7.327,1.127L18.738,14.721z"/>
							</g>
							<g>
								<path style="fill:#444343;" d="M11.172,6.46l0.023,0.026l7.658,8.361L9.38,10.622L11.172,6.46z M18.671,14.715l-7.484-8.172
									L9.44,10.599L18.671,14.715z"/>
							</g>
							<g>
								<path style="fill:#444343;" d="M14.715,2.298l0.017,0.014l3.898,3.066l-7.508,1.155L14.715,2.298z M18.518,5.35
									l-3.797-2.989L11.235,6.47L18.518,5.35z"/>
							</g>
							<g>
								<path style="fill:#444343;" d="M10.059-0.548l0.005,0.03l1.145,7.067l-0.042-0.03L4.624,2.01L10.059-0.548z M11.148,6.453
									L10.023-0.48L4.716,2.018L11.148,6.453z"/>
							</g>
							<g>
								<path style="fill:#444343;" d="M11.223,6.458l-1.808,4.195L7.35,8.072L11.223,6.458z M9.404,10.565l1.731-4.021L7.424,8.091
									L9.404,10.565z"/>
							</g>
							<g>
								<path style="fill:#444343;" d="M4.615,1.949l0.067,0.046l6.544,4.511l-0.04,0.017L7.376,8.111l-0.01-0.02L4.615,1.949z
									 M11.132,6.497L4.724,2.079l2.675,5.973L11.132,6.497z"/>
							</g>
						</g>
					</g>
					<path style="fill:#282828;" d="M26.469,20.975c0-0.245,0.198-0.444,0.443-0.444c0.244,0,0.442,0.199,0.442,0.444
						c0,0.243-0.198,0.44-0.442,0.44C26.667,21.415,26.469,21.218,26.469,20.975z"/>
					<path style="fill:#282828;" d="M14.977,17.163c0-0.245,0.199-0.442,0.443-0.442c0.244,0,0.442,0.197,0.442,0.442
						c0,0.244-0.198,0.443-0.442,0.443C15.176,17.606,14.977,17.407,14.977,17.163z"/>
					<path style="fill:#282828;" d="M25.006,12.072c0-0.194,0.157-0.352,0.352-0.352c0.193,0,0.351,0.158,0.351,0.352
						c0,0.194-0.157,0.352-0.351,0.352C25.163,12.424,25.006,12.267,25.006,12.072z"/>
					<path style="fill:#282828;" d="M21.404,23.155c0-0.194,0.158-0.352,0.352-0.352c0.193,0,0.352,0.157,0.352,0.352
						c0,0.193-0.158,0.351-0.352,0.351C21.563,23.506,21.404,23.349,21.404,23.155z"/>
					<path style="fill:#282828;" d="M27.832,22.784c0-0.099,0.08-0.178,0.18-0.178s0.18,0.079,0.18,0.178
						c0,0.101-0.08,0.181-0.18,0.181S27.832,22.886,27.832,22.784z"/>
					<path style="fill:#282828;" d="M27.958,22.271c0-0.057,0.046-0.104,0.104-0.104s0.103,0.047,0.103,0.104
						c0,0.057-0.045,0.104-0.103,0.104S27.958,22.328,27.958,22.271z"/>
					<path style="fill:#282828;" d="M18.032,17.501c0-0.137,0.11-0.246,0.248-0.246c0.136,0,0.247,0.109,0.247,0.246
						s-0.111,0.248-0.247,0.248C18.143,17.749,18.032,17.638,18.032,17.501z"/>
					<path style="fill:#282828;" d="M17.148,23.08c0-0.137,0.11-0.248,0.247-0.248c0.138,0,0.247,0.111,0.247,0.248
						c0,0.136-0.109,0.248-0.247,0.248C17.259,23.328,17.148,23.216,17.148,23.08z"/>
					<path style="fill:#282828;" d="M29.678,13.489c0-0.137,0.111-0.247,0.247-0.247c0.137,0,0.247,0.11,0.247,0.247
						c0,0.137-0.11,0.247-0.247,0.247C29.789,13.736,29.678,13.626,29.678,13.489z"/>
					<path style="fill:#282828;" d="M0.428,18.656c0-0.192,0.157-0.351,0.352-0.351c0.193,0,0.351,0.158,0.351,0.351
						c0,0.194-0.157,0.353-0.351,0.353C0.585,19.009,0.428,18.851,0.428,18.656z"/>
					<path style="fill:#282828;" d="M21.256,11.25c0-0.245,0.199-0.442,0.443-0.442c0.244,0,0.443,0.197,0.443,0.442
						c0,0.245-0.199,0.442-0.443,0.442C21.455,11.691,21.256,11.494,21.256,11.25z"/>
					<path style="fill:#282828;" d="M20.087,6.81c0-0.162,0.132-0.293,0.294-0.293s0.294,0.131,0.294,0.293
						c0,0.163-0.132,0.295-0.294,0.295S20.087,6.973,20.087,6.81z"/>
					<path style="fill:#282828;" d="M10.916,6.55c0-0.161,0.132-0.293,0.293-0.293c0.164,0,0.296,0.132,0.296,0.293
						c0,0.163-0.132,0.294-0.296,0.294C11.048,6.844,10.916,6.713,10.916,6.55z"/>
					<path style="fill:#282828;" d="M4.356,2.006c0-0.163,0.132-0.295,0.295-0.295c0.161,0,0.293,0.132,0.293,0.295
						c0,0.162-0.132,0.293-0.293,0.293C4.488,2.299,4.356,2.168,4.356,2.006z"/>
					<path style="fill:#282828;" d="M7.117,8.104c0-0.163,0.131-0.294,0.293-0.294c0.163,0,0.294,0.131,0.294,0.294
						c0,0.162-0.131,0.293-0.294,0.293C7.248,8.397,7.117,8.266,7.117,8.104z"/>
					<path style="fill:#282828;" d="M-3.843,10.957c0-0.162,0.132-0.294,0.293-0.294c0.163,0,0.295,0.132,0.295,0.294
						c0,0.163-0.132,0.295-0.295,0.295C-3.711,11.251-3.843,11.119-3.843,10.957z"/>
					<path style="fill:#282828;" d="M-1.213,18.615c0-0.162,0.132-0.294,0.293-0.294c0.163,0,0.295,0.132,0.295,0.294
						S-0.757,18.91-0.92,18.91C-1.081,18.91-1.213,18.777-1.213,18.615z"/>
					<path style="fill:#282828;" d="M0.663,13.209c0-0.163,0.132-0.294,0.294-0.294s0.294,0.131,0.294,0.294
						c0,0.162-0.132,0.295-0.294,0.295S0.663,13.371,0.663,13.209z"/>
					<path style="fill:#282828;" d="M6.512,22.43c0-0.163,0.132-0.294,0.293-0.294c0.163,0,0.295,0.131,0.295,0.294
						c0,0.162-0.132,0.294-0.295,0.294C6.644,22.724,6.512,22.592,6.512,22.43z"/>
					<path style="fill:#282828;" d="M6.069,18.56c0-0.164,0.132-0.296,0.293-0.296c0.163,0,0.295,0.132,0.295,0.296
						c0,0.161-0.132,0.293-0.295,0.293C6.201,18.853,6.069,18.721,6.069,18.56z"/>
					<path style="fill:#282828;" d="M6.907,17.767c0-0.096,0.078-0.172,0.173-0.172c0.096,0,0.171,0.076,0.171,0.172
						c0,0.095-0.075,0.171-0.171,0.171C6.985,17.938,6.907,17.861,6.907,17.767z"/>
					<path style="fill:#282828;" d="M6.922,18.618c0-0.093,0.077-0.171,0.173-0.171c0.095,0,0.172,0.078,0.172,0.171
						c0,0.096-0.077,0.174-0.172,0.174C6.999,18.792,6.922,18.714,6.922,18.618z"/>
					<path style="fill:#282828;" d="M0.982,15.051c0-0.162,0.131-0.293,0.293-0.293c0.163,0,0.294,0.131,0.294,0.293
						c0,0.163-0.131,0.294-0.294,0.294C1.113,15.345,0.982,15.214,0.982,15.051z"/>
					<path style="fill:#282828;" d="M9.728-0.522c0-0.162,0.132-0.293,0.293-0.293c0.163,0,0.295,0.132,0.295,0.293
						c0,0.163-0.132,0.294-0.295,0.294C9.859-0.228,9.728-0.359,9.728-0.522z"/>
					<path style="fill:#282828;" d="M18.246,5.394c0-0.163,0.132-0.295,0.294-0.295c0.163,0,0.294,0.132,0.294,0.295
						c0,0.162-0.131,0.293-0.294,0.293C18.378,5.687,18.246,5.556,18.246,5.394z"/>
					<path style="fill:#282828;" d="M29.494,9.966c0-0.163,0.131-0.295,0.295-0.295c0.162,0,0.293,0.132,0.293,0.295
						c0,0.163-0.131,0.294-0.293,0.294C29.625,10.261,29.494,10.129,29.494,9.966z"/>
					<path style="fill:#282828;" d="M28.219,1.089c0-0.162,0.131-0.293,0.293-0.293c0.163,0,0.295,0.131,0.295,0.293
						c0,0.163-0.132,0.295-0.295,0.295C28.35,1.384,28.219,1.252,28.219,1.089z"/>
					<path style="fill:#282828;" d="M14.421,2.348c0-0.163,0.132-0.294,0.294-0.294c0.162,0,0.294,0.132,0.294,0.294
						c0,0.162-0.132,0.294-0.294,0.294C14.553,2.642,14.421,2.51,14.421,2.348z"/>
					<path style="fill:#282828;" d="M18.3,14.725c0-0.311,0.253-0.565,0.564-0.565c0.312,0,0.564,0.254,0.564,0.565
						c0,0.313-0.253,0.565-0.564,0.565C18.553,15.29,18.3,15.037,18.3,14.725z"/>
					<path style="fill:#282828;" d="M8.927,10.702c0-0.312,0.253-0.566,0.564-0.566s0.563,0.253,0.563,0.566
						c0,0.311-0.252,0.563-0.563,0.563S8.927,11.013,8.927,10.702z"/>
					<path style="fill:#282828;" d="M12.737,25.454c0-0.31,0.252-0.564,0.564-0.564c0.313,0,0.564,0.254,0.564,0.564
						c0,0.313-0.252,0.565-0.564,0.565C12.989,26.02,12.737,25.767,12.737,25.454z"/>
					<path style="fill:#282828;" d="M-2.962,3.553c0-0.312,0.253-0.565,0.564-0.565s0.564,0.253,0.564,0.565
						c0,0.312-0.253,0.564-0.564,0.564S-2.962,3.865-2.962,3.553z"/>
				</g>
				<g>
					<g>
						<g>
							<g>
								<path style="fill:none;stroke:#444343;stroke-miterlimit:10;" d="M28.494,23.871"/>
							</g>
							<g>
								<path style="fill:#444343;" d="M-5.813,3.41l4.978,2.961l-4.978,1.441V3.41z M-5.768,3.49v4.26l4.818-1.393L-5.768,3.49z"/>
							</g>
							<g>
								<path style="fill:#444343;" d="M-5.813,13.219v-0.523l2.278,1.36l-0.021,0.041L-5.813,13.219z M-5.768,13.188l1.976,0.766
									l-1.976-1.177V13.188z"/>
							</g>
							<g>
								<path style="fill:#444343;" d="M-5.813,12.749V7.763l4.956-1.434l-2.677,7.779L-5.813,12.749z M-5.768,7.797v4.926
									l2.208,1.318l2.632-7.643L-5.768,7.797z"/>
							</g>
							<g>
								<path style="fill:#444343;" d="M17.346,1.917l4.492-0.064l-3.594,5.713L17.346,1.917z M17.398,1.963l0.871,5.476L21.754,1.9
									L17.398,1.963z"/>
							</g>
							<g>
								<path style="fill:#444343;" d="M17.38,1.842l0.9,5.656l0.003,0.023l-2.84,0.387L17.38,1.842z M17.365,2.039L15.51,7.855
									l2.721-0.373L17.365,2.039z"/>
							</g>
							<g>
								<path style="fill:#444343;" d="M13.292-0.573l4.093,2.493l0.015,0.01l-1.926,6.033L13.292-0.573z M13.363-0.476l2.115,8.273
									l1.867-5.847L13.363-0.476z"/>
							</g>
							<g>
								<path style="fill:#444343;" d="M7.039,7.224l8.486,0.638l-6.101,6.543l-0.025,0.029L7.039,7.224z M7.104,7.273l2.314,7.073
									l6.01-6.446L7.104,7.273z"/>
							</g>
							<g>
								<path style="fill:none;stroke:#444343;stroke-miterlimit:10;" d="M4.543,26.02"/>
							</g>
							<g>
								<polygon style="fill:#444343;" points="15.18,25.147 18.592,19.647 18.554,19.625 15.141,25.123 								"/>
							</g>
							<g>
								<path style="fill:none;stroke:#444343;stroke-miterlimit:10;" d="M15.16,25.134"/>
							</g>
							<g>
								<path style="fill:#444343;" d="M14.695,22.674l-0.002-0.013l3.968-3.124l-3.513,5.659L14.695,22.674z M14.742,22.679
									l0.43,2.394l3.313-5.337L14.742,22.679z"/>
							</g>
							<g>
								<path style="fill:none;stroke:#444343;stroke-miterlimit:10;" d="M15.16,25.134"/>
							</g>
							<g>
								<path style="fill:#444343;" d="M1.207,10.029l5.878-2.812l2.363,7.221L1.207,10.029z M1.307,10.032l8.063,4.312L7.058,7.281
									L1.307,10.032z"/>
							</g>
							<g>
								<path style="fill:#444343;" d="M0.935,11.757l-0.02-0.005l0.324-1.757L9.42,14.37l-0.017,0.043L0.935,11.757z M0.967,11.72
									l8.217,2.575l-7.91-4.23L0.967,11.72z"/>
							</g>
							<g>
								<path style="fill:#444343;" d="M1.243,10.012l5.071-3.615l0.794,0.859l-5.842,2.794L1.243,10.012z M6.31,6.458L1.484,9.895
									l5.549-2.652L6.31,6.458z"/>
							</g>
							<g>
								<path style="fill:#444343;" d="M0.792,6.304L0.789,6.278l5.594,0.128l-5.145,3.664L0.792,6.304z M0.84,6.326l0.436,3.664
									l4.968-3.541L0.84,6.326z"/>
							</g>
							<g>
								<path style="fill:#444343;" d="M1.29,9.972L0.963,11.74l-0.001,0.012L-3.72,14.19L1.29,9.972z M1.222,10.089l-4.595,3.87
									l4.294-2.239L1.222,10.089z"/>
							</g>
							<g>
								<path style="fill:#444343;" d="M-0.931,6.343l1.765-0.064l0.458,3.856L-0.931,6.343z M-0.853,6.385l2.073,3.538L0.795,6.326
									L-0.853,6.385z"/>
							</g>
							<g>
								<path style="fill:#444343;" d="M-0.914,6.357l0.017-0.047l2.174,3.709l0.01,0.017l-4.881,4.11L-0.914,6.357z M-0.887,6.418
									l-2.61,7.585l4.723-3.978L-0.887,6.418z"/>
							</g>
							<g>
								<path style="fill:#444343;" d="M0.738,6.322L6.806,2.49l0.042-0.026L6.332,6.451L0.738,6.322z M0.891,6.28l5.402,0.125
									l0.495-3.851L0.891,6.28z"/>
							</g>
							<g>
								<path style="fill:#444343;" d="M7.026,6.442l6.284-6.983l0.029-0.031l2.168,8.48L7.026,6.442z M7.115,6.413l8.33,1.439
									l-2.129-8.33L7.115,6.413z"/>
							</g>
							<g>
								<path style="fill:#444343;" d="M7.047,7.271V6.399l8.434,1.459l-0.006,0.044L7.047,7.271z M7.094,7.228l7.91,0.595
									l-7.91-1.369V7.228z"/>
							</g>
							<g>
								<path style="fill:#444343;" d="M6.796,2.511L6.795,2.496l6.625-3.088L7.088,6.442l-0.035,0.04L6.796,2.511z M6.842,2.522
									l0.249,3.85l6.145-6.829L6.842,2.522z"/>
							</g>
							<g>
								<path style="fill:#444343;" d="M6.261,6.404h0.833v0.904L6.261,6.404z M6.365,6.45l0.682,0.741V6.45H6.365z"/>
							</g>
							<g>
								<path style="fill:#444343;" d="M6.796,2.507L6.84,2.508L7.095,6.45H6.287L6.796,2.507z M6.811,2.747L6.338,6.404h0.708
									L6.811,2.747z"/>
							</g>
							<g>
								<path style="fill:#444343;" d="M28.44,23.891l2.373-2.149v2.275L28.44,23.891z M28.551,23.851l2.216,0.118v-2.125
									L28.551,23.851z"/>
							</g>
							<g>
								<path style="fill:none;stroke:#444343;stroke-miterlimit:10;" d="M4.543,26.02"/>
							</g>
							<g>
								<path style="fill:#444343;" d="M15.416,7.866l2.859-0.389l0.52,2.794L15.416,7.866z M15.537,7.896l3.193,2.272l-0.492-2.641
									L15.537,7.896z"/>
							</g>
							<g>
								<path style="fill:#444343;" d="M15.459,7.866l0.014-0.014l3.336,2.372l-9.493,4.234L15.459,7.866z M15.479,7.912
									l-5.976,6.412l9.214-4.108L15.479,7.912z"/>
							</g>
							<g>
								<path style="fill:#444343;" d="M7.17,16.216l2.397-1.985l-2.19,2.738L7.17,16.216z M7.224,16.23l0.173,0.639l1.856-2.319
									L7.224,16.23z"/>
							</g>
							<g>
								<path style="fill:#444343;" d="M0.812,11.672l8.604,2.697l0.04,0.012l-2.258,1.872L0.812,11.672z M1.071,11.8l6.125,4.393
									L9.362,14.4L1.071,11.8z"/>
							</g>
							<g>
								<path style="fill:#444343;" d="M-5.813,21.848l3.46-0.28l-3.46,3.854V21.848z M-5.768,21.889v3.413l3.303-3.68
									L-5.768,21.889z"/>
							</g>
							<g>
								<path style="fill:#444343;" d="M-2.42,21.574l9.633-5.385l0.201,0.741l-9.813,4.685L-2.42,21.574z M7.183,16.257
									l-8.962,5.012l9.139-4.361L7.183,16.257z"/>
							</g>
							<g>
								<path style="fill:#444343;" d="M0.919,11.729l0.01-0.028l6.312,4.525l-9.689,5.42L0.919,11.729z M0.953,11.773l-3.321,9.774
									l9.523-5.326L0.953,11.773z"/>
							</g>
							<g>
								<path style="fill:none;stroke:#444343;stroke-miterlimit:10;" d="M-2.409,21.595"/>
							</g>
							<g>
								<path style="fill:#444343;" d="M-3.568,14.078l-0.004-0.016l4.553-2.373l-3.368,9.913l-0.029,0.091L-3.568,14.078z
									 M-3.522,14.088l1.122,7.411L0.9,11.783L-3.522,14.088z"/>
							</g>
							<g>
								<polygon style="fill:#444343;" points="-5.772,25.377 -2.392,21.611 -2.426,21.581 -5.807,25.346 								"/>
							</g>
							<g>
								<path style="fill:#444343;" d="M26.831,4.035l-0.015-0.036l3.976,0.343l0.021,0.001v4.973l-0.927,2.292L26.831,4.035z
									 M30.767,4.386l-3.88-0.333l2.999,7.433l0.881-2.174V4.386z"/>
							</g>
							<g>
								<path style="fill:#444343;" d="M26.803,4.045l1.244-1.309l2.766,1.046V4.39L26.803,4.045z M28.059,2.789L26.9,4.008
									l3.866,0.332V3.813L28.059,2.789z"/>
							</g>
							<g>
								<path style="fill:#444343;" d="M26.834,4.013l1.242-1.897v0.655l-1.208,1.271L26.834,4.013z M28.029,2.269l-1.02,1.557
									l1.02-1.073V2.269z"/>
							</g>
							<g>
								<path style="fill:#444343;" d="M21.668,1.847l6.426,0.325l-1.234,1.883L21.668,1.847z M21.924,1.906l4.919,2.091
									l1.169-1.784L21.924,1.906z"/>
							</g>
							<g>
								<path style="fill:#444343;" d="M21.787,1.849l5.125,2.178L18.2,7.55L21.787,1.849z M21.805,1.906l-3.49,5.548l8.478-3.429
									L21.805,1.906z"/>
							</g>
							<g>
								<path style="fill:#444343;" d="M18.231,7.487L27,3.942l-8.253,6.319L18.231,7.487z M18.283,7.515l0.495,2.663l7.926-6.068
									L18.283,7.515z"/>
							</g>
							<g>
								<path style="fill:#444343;" d="M14.734,22.634l0.453,2.521l-5.239,0.388L14.734,22.634z M14.701,22.706l-4.567,2.776
									l4.999-0.368L14.701,22.706z"/>
							</g>
							<g>
								<polygon style="fill:#444343;" points="10.044,25.536 15.162,25.157 15.158,25.111 10.04,25.491 								"/>
							</g>
							<g>
								<path style="fill:#444343;" d="M20.292,18.239l9.523-3.238l0.034-0.012l-1.332,8.885l-0.006,0.035L20.292,18.239z
									 M20.393,18.253l8.085,5.577l1.316-8.773L20.393,18.253z"/>
							</g>
							<g>
								<polygon style="fill:#444343;" points="28.482,23.89 28.508,23.851 20.355,18.227 20.33,18.264 								"/>
							</g>
							<g>
								<path style="fill:#444343;" d="M18.723,10.135l3.035,3.681l-1.42,4.523L18.723,10.135z M18.803,10.304l1.545,7.85
									l1.359-4.326L18.803,10.304z"/>
							</g>
							<g>
								<polygon style="fill:#444343;" points="18.588,19.653 20.356,18.264 20.328,18.229 18.559,19.617 								"/>
							</g>
							<g>
								<path style="fill:#444343;" d="M18.744,10.006l1.621,8.235l0.003,0.015l-1.818,1.428L18.744,10.006z M18.781,10.433
									l-0.184,9.155l1.72-1.352L18.781,10.433z"/>
							</g>
							<g>
								<path style="fill:#444343;" d="M29.799,11.55l1.014-0.319v0.555L29.799,11.55z M29.973,11.543l0.794,0.186v-0.435
									L29.973,11.543z"/>
							</g>
							<g>
								<path style="fill:#444343;" d="M30.813,9.199v2.08l-0.967,0.304L30.813,9.199z M30.767,9.434l-0.842,2.078l0.842-0.267
									V9.434z"/>
							</g>
							<g>
								<path style="fill:#444343;" d="M25.207,12.932l4.672-1.406l0.03-0.01l-0.065,3.542L25.207,12.932z M25.337,12.941
									l4.464,2.046l0.06-3.41L25.337,12.941z"/>
							</g>
							<g>
								<path style="fill:#444343;" d="M26.843,3.943l3.063,7.596l0.01,0.022l-4.673,1.408L26.843,3.943z M26.859,4.108
									l-1.559,8.797l4.555-1.374L26.859,4.108z"/>
							</g>
							<g>
								<path style="fill:#444343;" d="M25.267,12.909l4.618,2.117l-9.535,3.24l-0.086,0.03L25.267,12.909z M25.277,12.965
									l-4.856,5.23l9.341-3.176L25.277,12.965z"/>
							</g>
							<g>
								<path style="fill:#444343;" d="M18.718,10.225l8.12-6.217l0.047-0.036l-1.596,8.998L18.718,10.225z M18.809,10.214
									l6.445,2.691l1.566-8.826L18.809,10.214z"/>
							</g>
							<g>
								<path style="fill:#444343;" d="M21.715,13.804l3.626-0.907l-5.05,5.439L21.715,13.804z M21.75,13.842l-1.355,4.314
									l4.809-5.177L21.75,13.842z"/>
							</g>
							<g>
								<path style="fill:#444343;" d="M18.685,10.164l6.659,2.78l-3.62,0.904L18.685,10.164z M18.84,10.275l2.901,3.521
									l3.458-0.864L18.84,10.275z"/>
							</g>
							<g>
								<path style="fill:#444343;" d="M30.813,16.953v4.85l-2.367,2.144L30.813,16.953z M30.767,17.231l-2.222,6.564l2.222-2.013
									V17.231z"/>
							</g>
							<g>
								<path style="fill:#444343;" d="M29.85,11.516l0.963,0.225v2.616L29.85,11.516z M29.92,11.579l0.847,2.502v-2.304
									L29.92,11.579z"/>
							</g>
							<g>
								<path style="fill:#444343;" d="M29.799,15.038l0.066-3.624l0.946,2.797l0.002,1.268L29.799,15.038z M29.906,11.679
									l-0.061,3.329l0.921,0.4v-1.188L29.906,11.679z"/>
							</g>
							<g>
								<path style="fill:#444343;" d="M28.473,23.867l1.332-8.878l1.008,0.439v1.667l-2.295,6.782L28.473,23.867z M30.767,15.459
									l-0.927-0.404l-1.284,8.564l2.211-6.531V15.459z"/>
							</g>
							<g>
								<path style="fill:none;stroke:#444343;stroke-miterlimit:10;" d="M29.443,25.639"/>
							</g>
							<g>
								<path style="fill:#444343;" d="M-5.813,20.308l3.508,1.302l-3.508,0.284V20.308z M-5.768,20.373v1.471l3.255-0.263
									L-5.768,20.373z"/>
							</g>
							<g>
								<path style="fill:#444343;" d="M-5.813,20.355v-5.439l2.285-0.872l1.147,7.586L-5.813,20.355z M-5.768,14.948v5.376
									l3.33,1.236l-1.127-7.453L-5.768,14.948z"/>
							</g>
							<g>
								<path style="fill:#444343;" d="M-5.813,13.169l2.329,0.906l-2.329,0.892V13.169z M-5.768,13.235v1.663l2.158-0.823
									L-5.768,13.235z"/>
							</g>
							<g>
								<path style="fill:#444343;" d="M-2.48,21.604l9.857-4.707l0.056-0.027l-2.743,6.125l-0.007,0.017L-2.48,21.604z
									 M-2.336,21.586l6.991,1.374l2.686-5.994L-2.336,21.586z"/>
							</g>
							<g>
								<path style="fill:#444343;" d="M11.175,18.521l-0.043-0.007l7.654-8.355l-0.19,9.476v0.026L11.175,18.521z M11.224,18.482
									l7.327,1.127l0.188-9.33L11.224,18.482z"/>
							</g>
							<g>
								<path style="fill:#444343;" d="M9.38,14.378l9.474-4.225l-7.658,8.361l-0.023,0.025L9.38,14.378z M9.44,14.403l1.746,4.054
									l7.484-8.171L9.44,14.403z"/>
							</g>
							<g>
								<path style="fill:#444343;" d="M11.121,18.466l7.508,1.156l-3.898,3.065l-0.017,0.014L11.121,18.466z M11.235,18.53
									l3.485,4.107l3.797-2.987L11.235,18.53z"/>
							</g>
							<g>
								<path style="fill:#444343;" d="M4.624,22.989l6.543-4.509l0.042-0.032l-1.145,7.069l-0.005,0.029L4.624,22.989z
									 M4.716,22.982l5.308,2.498l1.124-6.934L4.716,22.982z"/>
							</g>
							<g>
								<path style="fill:#444343;" d="M7.35,16.928l2.065-2.581l1.808,4.195L7.35,16.928z M7.424,16.909l3.711,1.546l-1.731-4.02
									L7.424,16.909z"/>
							</g>
							<g>
								<path style="fill:#444343;" d="M7.366,16.909l0.01-0.02l3.811,1.588l0.04,0.015l-6.544,4.512l-0.067,0.047L7.366,16.909z
									 M7.398,16.948l-2.675,5.973l6.408-4.418L7.398,16.948z"/>
							</g>
						</g>
					</g>
					<path style="fill:#282828;" d="M26.469,4.026c0,0.244,0.198,0.442,0.443,0.442c0.244,0,0.442-0.198,0.442-0.442
						c0-0.245-0.198-0.442-0.442-0.442C26.667,3.584,26.469,3.782,26.469,4.026z"/>
					<path style="fill:#282828;" d="M14.977,7.837c0,0.243,0.199,0.442,0.443,0.442c0.244,0,0.442-0.199,0.442-0.442
						c0-0.246-0.198-0.443-0.442-0.443C15.176,7.394,14.977,7.591,14.977,7.837z"/>
					<path style="fill:#282828;" d="M25.006,12.928c0,0.193,0.157,0.35,0.352,0.35c0.193,0,0.351-0.156,0.351-0.35
						c0-0.194-0.157-0.351-0.351-0.351C25.163,12.577,25.006,12.733,25.006,12.928z"/>
					<path style="fill:#282828;" d="M21.404,1.845c0,0.194,0.158,0.35,0.352,0.35c0.193,0,0.352-0.156,0.352-0.35
						c0-0.195-0.158-0.352-0.352-0.352C21.563,1.493,21.404,1.649,21.404,1.845z"/>
					<path style="fill:#282828;" d="M27.832,2.213c0,0.1,0.08,0.18,0.18,0.18s0.18-0.08,0.18-0.18c0-0.099-0.08-0.179-0.18-0.179
						S27.832,2.115,27.832,2.213z"/>
					<path style="fill:#282828;" d="M27.958,2.729c0,0.057,0.046,0.103,0.104,0.103s0.104-0.046,0.104-0.103
						c0-0.057-0.046-0.103-0.104-0.103S27.958,2.671,27.958,2.729z"/>
					<path style="fill:#282828;" d="M18.032,7.498c0,0.136,0.11,0.248,0.248,0.248c0.136,0,0.247-0.112,0.247-0.248
						c0-0.137-0.111-0.247-0.247-0.247C18.143,7.251,18.032,7.361,18.032,7.498z"/>
					<path style="fill:#282828;" d="M17.148,1.92c0,0.136,0.11,0.248,0.247,0.248c0.138,0,0.247-0.112,0.247-0.248
						c0-0.137-0.109-0.247-0.247-0.247C17.259,1.673,17.148,1.783,17.148,1.92z"/>
					<path style="fill:#282828;" d="M29.678,11.512c0,0.135,0.111,0.246,0.247,0.246c0.137,0,0.247-0.11,0.247-0.246
						c0-0.138-0.11-0.249-0.247-0.249C29.789,11.262,29.678,11.374,29.678,11.512z"/>
					<path style="fill:#282828;" d="M0.428,6.343c0,0.194,0.157,0.352,0.352,0.352c0.193,0,0.351-0.157,0.351-0.352
						c0-0.194-0.157-0.351-0.351-0.351C0.585,5.992,0.428,6.149,0.428,6.343z"/>
					<path style="fill:#282828;" d="M21.256,13.75c0,0.245,0.199,0.442,0.443,0.442c0.244,0,0.443-0.197,0.443-0.442
						c0-0.244-0.199-0.443-0.443-0.443C21.455,13.307,21.256,13.506,21.256,13.75z"/>
					<path style="fill:#282828;" d="M20.087,18.188c0,0.163,0.132,0.294,0.294,0.294s0.294-0.131,0.294-0.294
						c0-0.162-0.132-0.293-0.294-0.293S20.087,18.026,20.087,18.188z"/>
					<path style="fill:#282828;" d="M10.916,18.448c0,0.163,0.132,0.295,0.293,0.295c0.164,0,0.296-0.132,0.296-0.295
						c0-0.161-0.132-0.293-0.296-0.293C11.048,18.155,10.916,18.287,10.916,18.448z"/>
					<path style="fill:#282828;" d="M4.356,22.994c0,0.161,0.132,0.293,0.295,0.293c0.161,0,0.293-0.132,0.293-0.293
						c0-0.163-0.132-0.295-0.293-0.295C4.488,22.699,4.356,22.831,4.356,22.994z"/>
					<path style="fill:#282828;" d="M7.117,16.897c0,0.162,0.131,0.294,0.293,0.294c0.163,0,0.294-0.132,0.294-0.294
						c0-0.163-0.131-0.294-0.294-0.294C7.248,16.604,7.117,16.734,7.117,16.897z"/>
					<path style="fill:#282828;" d="M-3.843,14.044c0,0.162,0.132,0.293,0.293,0.293c0.163,0,0.295-0.131,0.295-0.293
						c0-0.164-0.132-0.295-0.295-0.295C-3.711,13.749-3.843,13.88-3.843,14.044z"/>
					<path style="fill:#282828;" d="M-1.213,6.384c0,0.164,0.132,0.295,0.293,0.295c0.163,0,0.295-0.131,0.295-0.295
						c0-0.162-0.132-0.293-0.295-0.293C-1.081,6.091-1.213,6.222-1.213,6.384z"/>
					<path style="fill:#282828;" d="M0.663,11.792c0,0.162,0.132,0.293,0.294,0.293s0.294-0.131,0.294-0.293
						c0-0.163-0.132-0.294-0.294-0.294S0.663,11.628,0.663,11.792z"/>
					<path style="fill:#282828;" d="M6.512,2.57c0,0.161,0.132,0.295,0.293,0.295C6.968,2.865,7.1,2.731,7.1,2.57
						c0-0.163-0.132-0.294-0.295-0.294C6.644,2.275,6.512,2.407,6.512,2.57z"/>
					<path style="fill:#282828;" d="M6.069,6.441c0,0.162,0.132,0.293,0.293,0.293c0.163,0,0.295-0.131,0.295-0.293
						c0-0.163-0.132-0.295-0.295-0.295C6.201,6.146,6.069,6.278,6.069,6.441z"/>
					<path style="fill:#282828;" d="M6.907,7.234c0,0.094,0.078,0.172,0.173,0.172c0.096,0,0.171-0.078,0.171-0.172
						c0-0.096-0.075-0.172-0.171-0.172C6.985,7.062,6.907,7.138,6.907,7.234z"/>
					<path style="fill:#282828;" d="M6.922,6.379c0,0.096,0.077,0.173,0.173,0.173c0.095,0,0.172-0.077,0.172-0.173
						c0-0.094-0.077-0.171-0.172-0.171C6.999,6.208,6.922,6.285,6.922,6.379z"/>
					<path style="fill:#282828;" d="M0.982,9.949c0,0.163,0.131,0.294,0.293,0.294c0.163,0,0.294-0.131,0.294-0.294
						c0-0.163-0.131-0.295-0.294-0.295C1.113,9.654,0.982,9.786,0.982,9.949z"/>
					<path style="fill:#282828;" d="M9.728,25.522c0,0.161,0.132,0.293,0.293,0.293c0.163,0,0.295-0.132,0.295-0.293
						c0-0.164-0.132-0.296-0.295-0.296C9.859,25.227,9.728,25.358,9.728,25.522z"/>
					<path style="fill:#282828;" d="M18.246,19.606c0,0.163,0.132,0.295,0.294,0.295c0.163,0,0.294-0.132,0.294-0.295
						c0-0.162-0.131-0.294-0.294-0.294C18.378,19.313,18.246,19.444,18.246,19.606z"/>
					<path style="fill:#282828;" d="M29.494,15.034c0,0.163,0.131,0.294,0.295,0.294c0.162,0,0.293-0.131,0.293-0.294
						c0-0.162-0.131-0.294-0.293-0.294C29.625,14.74,29.494,14.872,29.494,15.034z"/>
					<path style="fill:#282828;" d="M28.219,23.909c0,0.163,0.131,0.295,0.293,0.295c0.163,0,0.295-0.132,0.295-0.295
						c0-0.161-0.132-0.293-0.295-0.293C28.35,23.616,28.219,23.748,28.219,23.909z"/>
					<path style="fill:#282828;" d="M14.421,22.651c0,0.163,0.132,0.296,0.294,0.296c0.162,0,0.294-0.133,0.294-0.296
						c0-0.161-0.132-0.293-0.294-0.293C14.553,22.358,14.421,22.49,14.421,22.651z"/>
					<path style="fill:#282828;" d="M18.3,10.275c0,0.312,0.253,0.565,0.564,0.565c0.312,0,0.564-0.253,0.564-0.565
						c0-0.312-0.253-0.563-0.564-0.563C18.553,9.712,18.3,9.963,18.3,10.275z"/>
					<path style="fill:#282828;" d="M8.927,14.3c0,0.312,0.253,0.564,0.564,0.564s0.563-0.252,0.563-0.564
						c0-0.311-0.252-0.564-0.563-0.564S8.927,13.988,8.927,14.3z"/>
					<path style="fill:#282828;" d="M12.737-0.455c0,0.312,0.252,0.565,0.564,0.565c0.313,0,0.564-0.253,0.564-0.565
						S13.613-1.02,13.301-1.02C12.989-1.02,12.737-0.767,12.737-0.455z"/>
					<path style="fill:#282828;" d="M-2.962,21.447c0,0.312,0.253,0.565,0.564,0.565s0.564-0.254,0.564-0.565
						c0-0.312-0.253-0.565-0.564-0.565S-2.962,21.136-2.962,21.447z"/>
				</g>
			</g>
			<rect style="fill:none;" width="25" height="25"/>
		</g>
	</g>
	<g>
		<defs>
			<rect id="SVGID_00000070085851221488861750000013553339791229298577_" width="25" height="25"/>
		</defs>
		<clipPath id="SVGID_00000132770853718317775210000004668320816678997644_">
			<use xlink:href="#SVGID_00000070085851221488861750000013553339791229298577_"  style="overflow:visible;"/>
		</clipPath>
		<defs>
			
				<filter id="Adobe_OpacityMaskFilter_00000142166975180363740950000011068593672916557216_" filterUnits="userSpaceOnUse" x="-1.02" y="-5.813" width="27.039" height="36.625">
				<feColorMatrix  type="matrix" values="1 0 0 0 0  0 1 0 0 0  0 0 1 0 0  0 0 0 1 0"/>
			</filter>
		</defs>
		
			<mask maskUnits="userSpaceOnUse" x="-1.02" y="-5.813" width="27.039" height="36.625" id="SVGID_00000173128676606248954040000011034072433991910292_">
			<g style="filter:url(#Adobe_OpacityMaskFilter_00000142166975180363740950000011068593672916557216_);">
				
					<radialGradient id="SVGID_00000122689114475962314420000006475119237436975020_" cx="34.0625" cy="37.0615" r="50.4094" gradientTransform="matrix(0 -1 -1 0 24.999 25)" gradientUnits="userSpaceOnUse">
					<stop  offset="0.2294" style="stop-color:#FFFFFF"/>
					<stop  offset="0.332" style="stop-color:#B8B8B8"/>
					<stop  offset="0.4355" style="stop-color:#777777"/>
					<stop  offset="0.5299" style="stop-color:#444444"/>
					<stop  offset="0.6116" style="stop-color:#1F1F1F"/>
					<stop  offset="0.6775" style="stop-color:#080808"/>
					<stop  offset="0.7192" style="stop-color:#000000"/>
				</radialGradient>
				
					<rect style="clip-path:url(#SVGID_00000132770853718317775210000004668320816678997644_);fill:url(#SVGID_00000122689114475962314420000006475119237436975020_);" width="25" height="25"/>
			</g>
		</mask>
		
			<g style="clip-path:url(#SVGID_00000132770853718317775210000004668320816678997644_);mask:url(#SVGID_00000173128676606248954040000011034072433991910292_);">
			<g>
				<g style="opacity:0.25;">
					<g>
						<g>
							<g>
								<path style="fill:none;stroke:#444343;stroke-miterlimit:10;" d="M23.87,28.494"/>
							</g>
							<g>
								<path style="fill:#444343;" d="M7.813-5.813l-1.44,4.978L3.409-5.813H7.813z M6.357-0.949l1.394-4.818H3.49L6.357-0.949z"/>
							</g>
							<g>
								<path style="fill:#444343;" d="M14.096-3.555l-0.041,0.021l-1.359-2.278h0.523L14.096-3.555z M12.776-5.768l1.179,1.976
									l-0.769-1.976H12.776z"/>
							</g>
							<g>
								<path style="fill:#444343;" d="M14.109-3.533L6.331-0.856l1.432-4.956h4.986L14.109-3.533z M6.398-0.928l7.643-2.632
									l-1.318-2.208H7.797L6.398-0.928z"/>
							</g>
							<g>
								<path style="fill:#444343;" d="M7.565,18.244l-5.711,3.594l0.063-4.492L7.565,18.244z M1.9,21.754l5.538-3.484l-5.475-0.871
									L1.9,21.754z"/>
							</g>
							<g>
								<path style="fill:#444343;" d="M7.909,15.443l-0.389,2.84L7.499,18.28l-5.657-0.9L7.909,15.443z M7.482,18.23l0.371-2.721
									l-5.814,1.855L7.482,18.23z"/>
							</g>
							<g>
								<path style="fill:#444343;" d="M7.963,15.474l-6.032,1.926l-0.009-0.015l-2.495-4.093L7.963,15.474z M1.95,17.346
									l5.849-1.867l-8.274-2.115L1.95,17.346z"/>
							</g>
							<g>
								<path style="fill:#444343;" d="M14.435,9.399l-0.027,0.025l-6.546,6.101L7.224,7.039L14.435,9.399z M7.9,15.428l6.446-6.01
									L7.275,7.104L7.9,15.428z"/>
							</g>
							<g>
								<path style="fill:none;stroke:#444343;stroke-miterlimit:10;" d="M26.02,4.543"/>
							</g>
							<g>
								<polygon style="fill:#444343;" points="25.147,15.18 19.648,18.592 19.625,18.554 25.123,15.141 								"/>
							</g>
							<g>
								<path style="fill:none;stroke:#444343;stroke-miterlimit:10;" d="M25.136,15.16"/>
							</g>
							<g>
								<path style="fill:#444343;" d="M25.197,15.148l-5.658,3.513l3.121-3.968l0.014,0.002L25.197,15.148z M19.734,18.485
									l5.338-3.313l-2.393-0.43L19.734,18.485z"/>
							</g>
							<g>
								<path style="fill:none;stroke:#444343;stroke-miterlimit:10;" d="M25.136,15.16"/>
							</g>
							<g>
								<path style="fill:#444343;" d="M14.439,9.448L7.218,7.085l2.812-5.878L14.439,9.448z M7.281,7.058l7.063,2.313L10.03,1.307
									L7.281,7.058z"/>
							</g>
							<g>
								<path style="fill:#444343;" d="M14.412,9.403L14.37,9.42L9.995,1.239l1.759-0.324l0.005,0.02L14.412,9.403z M10.064,1.273
									l4.23,7.91L11.72,0.967L10.064,1.273z"/>
							</g>
							<g>
								<path style="fill:#444343;" d="M10.051,1.267L7.257,7.108L6.398,6.314l3.612-5.071L10.051,1.267z M7.243,7.033l2.653-5.549
									L6.458,6.31L7.243,7.033z"/>
							</g>
							<g>
								<path style="fill:#444343;" d="M10.071,1.238L6.406,6.383L6.277,0.789l0.026,0.003L10.071,1.238z M6.45,6.243l3.539-4.968
									L6.325,0.84L6.45,6.243z"/>
							</g>
							<g>
								<path style="fill:#444343;" d="M14.191-3.72l-2.439,4.682L11.74,0.963L9.972,1.29L14.191-3.72z M11.723,0.921l2.235-4.294
									l-3.87,4.595L11.723,0.921z"/>
							</g>
							<g>
								<path style="fill:#444343;" d="M10.137,1.292L6.277,0.834l0.066-1.765L10.137,1.292z M6.325,0.795l3.599,0.426L6.386-0.853
									L6.325,0.795z"/>
							</g>
							<g>
								<path style="fill:#444343;" d="M14.146-3.595l-4.111,4.881l-0.017-0.01L6.31-0.897l0.048-0.017L14.146-3.595z M10.024,1.226
									l3.979-4.723L6.42-0.887L10.024,1.226z"/>
							</g>
							<g>
								<path style="fill:#444343;" d="M6.451,6.332L2.464,6.848l0.025-0.042l3.833-6.067L6.451,6.332z M2.556,6.788l3.848-0.495
									L6.28,0.891L2.556,6.788z"/>
							</g>
							<g>
								<path style="fill:#444343;" d="M7.911,15.508L-0.57,13.34l0.031-0.029l6.983-6.284L7.911,15.508z M-0.478,13.316
									l8.331,2.129l-1.44-8.33L-0.478,13.316z"/>
							</g>
							<g>
								<path style="fill:#444343;" d="M7.904,15.475l-0.045,0.006L6.401,7.047h0.87L7.904,15.475z M6.455,7.094l1.368,7.91
									l-0.596-7.91H6.455z"/>
							</g>
							<g>
								<path style="fill:#444343;" d="M6.484,7.053L6.442,7.088l-7.034,6.332l3.087-6.625l0.017,0.001L6.484,7.053z M-0.457,13.235
									l6.829-6.145L2.523,6.842L-0.457,13.235z"/>
							</g>
							<g>
								<path style="fill:#444343;" d="M7.309,7.094H6.405V6.261L7.309,7.094z M6.451,7.047H7.19L6.451,6.365V7.047z"/>
							</g>
							<g>
								<path style="fill:#444343;" d="M6.451,6.287v0.808L2.509,6.84L2.507,6.796L6.451,6.287z M6.405,7.046V6.338L2.747,6.811
									L6.405,7.046z"/>
							</g>
							<g>
								<path style="fill:#444343;" d="M24.017,30.813H21.74l2.15-2.373L24.017,30.813z M21.844,30.767h2.124l-0.117-2.216
									L21.844,30.767z"/>
							</g>
							<g>
								<path style="fill:none;stroke:#444343;stroke-miterlimit:10;" d="M26.02,4.543"/>
							</g>
							<g>
								<path style="fill:#444343;" d="M10.271,18.795l-2.795-0.52l0.39-2.859L10.271,18.795z M7.529,18.238l2.639,0.492
									l-2.272-3.193L7.529,18.238z"/>
							</g>
							<g>
								<path style="fill:#444343;" d="M14.457,9.315l-4.233,9.493l-2.373-3.336l0.016-0.014L14.457,9.315z M10.215,18.717
									l4.109-9.214l-6.412,5.976L10.215,18.717z"/>
							</g>
							<g>
								<path style="fill:#444343;" d="M16.968,7.377l-2.737,2.19l1.984-2.397L16.968,7.377z M14.551,9.253l2.318-1.856
									l-0.637-0.173L14.551,9.253z"/>
							</g>
							<g>
								<path style="fill:#444343;" d="M16.252,7.197l-1.871,2.258l-0.012-0.04l-2.697-8.604L16.252,7.197z M14.4,9.362l1.795-2.166
									l-4.393-6.125L14.4,9.362z"/>
							</g>
							<g>
								<path style="fill:#444343;" d="M25.422-5.813l-3.854,3.46l0.28-3.46H25.422z M21.623-2.465l3.68-3.303H21.89L21.623-2.465z"
									/>
							</g>
							<g>
								<path style="fill:#444343;" d="M21.615-2.399l-4.684,9.813L16.19,7.213l5.387-9.633L21.615-2.399z M16.906,7.359
									l4.363-9.139l-5.012,8.962L16.906,7.359z"/>
							</g>
							<g>
								<path style="fill:#444343;" d="M21.645-2.449L16.227,7.24l-4.527-6.312l0.029-0.01L21.645-2.449z M16.221,7.155l5.325-9.523
									l-9.773,3.321L16.221,7.155z"/>
							</g>
							<g>
								<path style="fill:none;stroke:#444343;stroke-miterlimit:10;" d="M21.596-2.409"/>
							</g>
							<g>
								<path style="fill:#444343;" d="M21.691-2.417l-0.088,0.029L11.69,0.98l2.372-4.553l0.016,0.004L21.691-2.417z M11.782,0.9
									L21.499-2.4l-7.412-1.122L11.782,0.9z"/>
							</g>
							<g>
								<polygon style="fill:#444343;" points="25.377,-5.772 21.61,-2.392 21.58,-2.426 25.348,-5.807 								"/>
							</g>
							<g>
								<path style="fill:#444343;" d="M11.607,29.886l-2.291,0.927H4.344l-0.002-0.021l-0.341-3.976l0.034,0.015L11.607,29.886z
									 M9.313,30.767l2.173-0.881l-7.434-2.999l0.334,3.88H9.313z"/>
							</g>
							<g>
								<path style="fill:#444343;" d="M4.39,30.813H3.782l-1.047-2.766l1.31-1.244L4.39,30.813z M3.813,30.767h0.525L4.008,26.9
									l-1.219,1.158L3.813,30.767z"/>
							</g>
							<g>
								<path style="fill:#444343;" d="M4.042,26.868l-1.271,1.208H2.117l1.896-1.242L4.042,26.868z M2.753,28.029l1.073-1.02
									l-1.556,1.02H2.753z"/>
							</g>
							<g>
								<path style="fill:#444343;" d="M4.055,26.859l-1.882,1.234l-0.325-6.426L4.055,26.859z M2.216,28.012l1.782-1.169
									l-2.091-4.919L2.216,28.012z"/>
							</g>
							<g>
								<path style="fill:#444343;" d="M7.55,18.2l-3.524,8.712l-2.177-5.125L7.55,18.2z M4.025,26.793l3.429-8.478l-5.548,3.49
									L4.025,26.793z"/>
							</g>
							<g>
								<path style="fill:#444343;" d="M10.26,18.747L3.942,27l3.546-8.769L10.26,18.747z M4.11,26.704l6.067-7.926l-2.661-0.495
									L4.11,26.704z"/>
							</g>
							<g>
								<path style="fill:#444343;" d="M25.543,9.948l-0.387,5.239l-2.524-0.453L25.543,9.948z M25.114,15.133l0.37-4.999
									l-2.777,4.567L25.114,15.133z"/>
							</g>
							<g>
								<polygon style="fill:#444343;" points="25.536,10.044 25.156,15.162 25.112,15.158 25.49,10.04 								"/>
							</g>
							<g>
								<path style="fill:#444343;" d="M23.911,28.512l-0.037,0.006l-8.885,1.332L15,29.815l3.24-9.523L23.911,28.512z
									 M15.057,29.794l8.775-1.316l-5.578-8.085L15.057,29.794z"/>
							</g>
							<g>
								<polygon style="fill:#444343;" points="23.889,28.482 23.852,28.508 18.227,20.355 18.266,20.33 								"/>
							</g>
							<g>
								<path style="fill:#444343;" d="M18.338,20.338l-4.521,1.42l-3.682-3.035L18.338,20.338z M13.826,21.707l4.328-1.359
									l-7.851-1.545L13.826,21.707z"/>
							</g>
							<g>
								<polygon style="fill:#444343;" points="19.654,18.588 18.264,20.356 18.229,20.328 19.619,18.559 								"/>
							</g>
							<g>
								<path style="fill:#444343;" d="M19.685,18.55l-1.429,1.818l-0.015-0.003l-8.234-1.621L19.685,18.55z M18.236,20.317
									l1.353-1.72l-9.156,0.184L18.236,20.317z"/>
							</g>
							<g>
								<path style="fill:#444343;" d="M11.788,30.813h-0.558l0.319-1.014L11.788,30.813z M11.293,30.767h0.436l-0.184-0.794
									L11.293,30.767z"/>
							</g>
							<g>
								<path style="fill:#444343;" d="M11.584,29.846l-0.305,0.967h-2.08L11.584,29.846z M11.245,30.767l0.266-0.842l-2.076,0.842
									H11.245z"/>
							</g>
							<g>
								<path style="fill:#444343;" d="M15.058,29.845l-3.542,0.065l0.009-0.03l1.409-4.672L15.058,29.845z M11.579,29.861
									l3.409-0.06l-2.046-4.464L11.579,29.861z"/>
							</g>
							<g>
								<path style="fill:#444343;" d="M12.971,25.243l-1.41,4.673l-0.021-0.01l-7.596-3.063L12.971,25.243z M11.533,29.855
									l1.372-4.555l-8.795,1.559L11.533,29.855z"/>
							</g>
							<g>
								<path style="fill:#444343;" d="M18.297,20.264l-0.028,0.086l-3.243,9.535l-2.116-4.618L18.297,20.264z M15.019,29.762
									l3.177-9.341l-5.23,4.856L15.019,29.762z"/>
							</g>
							<g>
								<path style="fill:#444343;" d="M12.97,25.289l-8.998,1.596l0.036-0.047l6.217-8.12L12.97,25.289z M4.08,26.82l8.825-1.566
									l-2.691-6.445L4.08,26.82z"/>
							</g>
							<g>
								<path style="fill:#444343;" d="M18.336,20.291l-5.439,5.05l0.906-3.626L18.336,20.291z M12.978,25.203l5.178-4.809
									L13.84,21.75L12.978,25.203z"/>
							</g>
							<g>
								<path style="fill:#444343;" d="M13.848,21.725l-0.905,3.62l-2.78-6.659L13.848,21.725z M12.932,25.199l0.864-3.458
									l-3.52-2.901L12.932,25.199z"/>
							</g>
							<g>
								<path style="fill:#444343;" d="M23.946,28.445l-2.145,2.367h-4.849L23.946,28.445z M21.782,30.767l2.013-2.222l-6.564,2.222
									H21.782z"/>
							</g>
							<g>
								<path style="fill:#444343;" d="M14.356,30.813h-2.617l-0.223-0.963L14.356,30.813z M11.776,30.767h2.302l-2.499-0.847
									L11.776,30.767z"/>
							</g>
							<g>
								<path style="fill:#444343;" d="M15.477,30.813L14.21,30.81l-2.794-0.946l3.62-0.066L15.477,30.813z M14.221,30.767h1.188
									l-0.4-0.921l-3.329,0.061L14.221,30.767z"/>
							</g>
							<g>
								<path style="fill:#444343;" d="M23.878,28.518l-6.783,2.295h-1.667l-0.438-1.008l8.878-1.332L23.878,28.518z M17.088,30.767
									l6.532-2.211l-8.564,1.284l0.401,0.927H17.088z"/>
							</g>
							<g>
								<path style="fill:none;stroke:#444343;stroke-miterlimit:10;" d="M25.641,29.443"/>
							</g>
							<g>
								<path style="fill:#444343;" d="M21.894-5.813L21.61-2.305l-1.304-3.508H21.894z M21.58-2.513l0.264-3.255h-1.471
									L21.58-2.513z"/>
							</g>
							<g>
								<path style="fill:#444343;" d="M21.631-2.38l-7.588-1.147l0.873-2.285h5.439L21.631-2.38z M14.106-3.564l7.454,1.127
									l-1.236-3.33h-5.377L14.106-3.564z"/>
							</g>
							<g>
								<path style="fill:#444343;" d="M14.965-5.813l-0.89,2.329l-0.907-2.329H14.965z M14.075-3.609l0.824-2.158h-1.663
									L14.075-3.609z"/>
							</g>
							<g>
								<path style="fill:#444343;" d="M23.012,4.683l-0.017,0.007l-6.124,2.743l0.027-0.056l4.707-9.857L23.012,4.683z
									 M16.965,7.341l5.994-2.686l-1.373-6.991L16.965,7.341z"/>
							</g>
							<g>
								<path style="fill:#444343;" d="M19.664,18.596h-0.027l-9.477,0.19l8.355-7.654l0.008,0.043L19.664,18.596z M10.279,18.738
									l9.331-0.188l-1.128-7.327L10.279,18.738z"/>
							</g>
							<g>
								<path style="fill:#444343;" d="M18.54,11.172l-0.026,0.023l-8.36,7.658l4.226-9.474L18.54,11.172z M10.285,18.671
									l8.172-7.484L14.401,9.44L10.285,18.671z"/>
							</g>
							<g>
								<path style="fill:#444343;" d="M22.702,14.715l-0.015,0.017l-3.065,3.898l-1.155-7.508L22.702,14.715z M19.65,18.518
									l2.988-3.797l-4.108-3.485L19.65,18.518z"/>
							</g>
							<g>
								<path style="fill:#444343;" d="M25.548,10.059l-0.03,0.005l-7.067,1.145l0.03-0.042l4.51-6.543L25.548,10.059z
									 M18.547,11.148l6.934-1.124l-2.498-5.308L18.547,11.148z"/>
							</g>
							<g>
								<path style="fill:#444343;" d="M18.541,11.223l-4.194-1.808l2.581-2.065L18.541,11.223z M14.435,9.404l4.022,1.731
									l-1.547-3.711L14.435,9.404z"/>
							</g>
							<g>
								<path style="fill:#444343;" d="M23.051,4.615l-0.045,0.067l-4.512,6.544l-0.017-0.04l-1.589-3.811l0.021-0.01L23.051,4.615z
									 M18.504,11.132l4.418-6.408l-5.974,2.675L18.504,11.132z"/>
							</g>
						</g>
					</g>
					<path style="fill:#282828;" d="M4.025,26.469c0.245,0,0.444,0.198,0.444,0.443c0,0.244-0.199,0.442-0.444,0.442
						c-0.243,0-0.44-0.198-0.44-0.442C3.585,26.667,3.782,26.469,4.025,26.469z"/>
					<path style="fill:#282828;" d="M7.837,14.977c0.245,0,0.442,0.199,0.442,0.443c0,0.244-0.197,0.442-0.442,0.442
						c-0.244,0-0.443-0.198-0.443-0.442C7.394,15.176,7.593,14.977,7.837,14.977z"/>
					<path style="fill:#282828;" d="M12.928,25.006c0.194,0,0.352,0.157,0.352,0.352c0,0.193-0.157,0.351-0.352,0.351
						c-0.194,0-0.352-0.157-0.352-0.351C12.576,25.163,12.733,25.006,12.928,25.006z"/>
					<path style="fill:#282828;" d="M1.845,21.404c0.194,0,0.352,0.158,0.352,0.352c0,0.193-0.157,0.352-0.352,0.352
						c-0.193,0-0.351-0.158-0.351-0.352C1.494,21.563,1.651,21.404,1.845,21.404z"/>
					<path style="fill:#282828;" d="M2.216,27.832c0.099,0,0.178,0.08,0.178,0.18s-0.079,0.18-0.178,0.18
						c-0.102,0-0.181-0.08-0.181-0.18S2.114,27.832,2.216,27.832z"/>
					<path style="fill:#282828;" d="M2.729,27.958c0.057,0,0.104,0.046,0.104,0.104s-0.047,0.103-0.104,0.103
						c-0.057,0-0.104-0.045-0.104-0.103S2.672,27.958,2.729,27.958z"/>
					<path style="fill:#282828;" d="M7.499,18.032c0.137,0,0.246,0.11,0.246,0.248c0,0.136-0.109,0.247-0.246,0.247
						c-0.137,0-0.248-0.111-0.248-0.247C7.251,18.143,7.362,18.032,7.499,18.032z"/>
					<path style="fill:#282828;" d="M1.92,17.148c0.137,0,0.248,0.11,0.248,0.247c0,0.138-0.111,0.247-0.248,0.247
						c-0.136,0-0.248-0.109-0.248-0.247C1.672,17.259,1.784,17.148,1.92,17.148z"/>
					<path style="fill:#282828;" d="M11.511,29.678c0.137,0,0.247,0.111,0.247,0.247c0,0.137-0.11,0.247-0.247,0.247
						c-0.137,0-0.247-0.11-0.247-0.247C11.264,29.789,11.374,29.678,11.511,29.678z"/>
					<path style="fill:#282828;" d="M6.344,0.428c0.192,0,0.351,0.157,0.351,0.352c0,0.193-0.158,0.351-0.351,0.351
						c-0.194,0-0.353-0.157-0.353-0.351C5.991,0.585,6.149,0.428,6.344,0.428z"/>
					<path style="fill:#282828;" d="M13.75,21.256c0.245,0,0.442,0.199,0.442,0.443c0,0.244-0.197,0.443-0.442,0.443
						c-0.244,0-0.441-0.199-0.441-0.443C13.309,21.455,13.506,21.256,13.75,21.256z"/>
					<path style="fill:#282828;" d="M18.19,20.087c0.162,0,0.293,0.132,0.293,0.294s-0.131,0.294-0.293,0.294
						c-0.162,0-0.295-0.132-0.295-0.294S18.027,20.087,18.19,20.087z"/>
					<path style="fill:#282828;" d="M18.45,10.916c0.161,0,0.294,0.132,0.294,0.293c0,0.164-0.133,0.296-0.294,0.296
						c-0.163,0-0.294-0.132-0.294-0.296C18.156,11.048,18.287,10.916,18.45,10.916z"/>
					<path style="fill:#282828;" d="M22.994,4.356c0.162,0,0.295,0.132,0.295,0.295c0,0.161-0.133,0.293-0.295,0.293
						c-0.162,0-0.293-0.132-0.293-0.293C22.701,4.488,22.832,4.356,22.994,4.356z"/>
					<path style="fill:#282828;" d="M16.896,7.117c0.163,0,0.295,0.131,0.295,0.293c0,0.163-0.132,0.294-0.295,0.294
						c-0.162,0-0.293-0.131-0.293-0.294C16.604,7.248,16.734,7.117,16.896,7.117z"/>
					<path style="fill:#282828;" d="M14.043-3.843c0.162,0,0.295,0.132,0.295,0.293c0,0.163-0.133,0.295-0.295,0.295
						s-0.294-0.132-0.294-0.295C13.749-3.711,13.881-3.843,14.043-3.843z"/>
					<path style="fill:#282828;" d="M6.385-1.213c0.162,0,0.294,0.132,0.294,0.293c0,0.163-0.132,0.295-0.294,0.295
						S6.09-0.757,6.09-0.92C6.09-1.081,6.223-1.213,6.385-1.213z"/>
					<path style="fill:#282828;" d="M11.791,0.663c0.163,0,0.294,0.132,0.294,0.294s-0.131,0.294-0.294,0.294
						c-0.162,0-0.295-0.132-0.295-0.294S11.629,0.663,11.791,0.663z"/>
					<path style="fill:#282828;" d="M2.57,6.512c0.163,0,0.294,0.132,0.294,0.293C2.864,6.968,2.733,7.1,2.57,7.1
						c-0.162,0-0.294-0.132-0.294-0.295C2.276,6.644,2.408,6.512,2.57,6.512z"/>
					<path style="fill:#282828;" d="M6.44,6.069c0.164,0,0.296,0.132,0.296,0.293c0,0.163-0.132,0.295-0.296,0.295
						c-0.161,0-0.293-0.132-0.293-0.295C6.147,6.201,6.279,6.069,6.44,6.069z"/>
					<path style="fill:#282828;" d="M7.233,6.907c0.096,0,0.172,0.078,0.172,0.173c0,0.096-0.076,0.171-0.172,0.171
						c-0.095,0-0.171-0.075-0.171-0.171C7.063,6.985,7.139,6.907,7.233,6.907z"/>
					<path style="fill:#282828;" d="M6.382,6.922c0.093,0,0.171,0.077,0.171,0.173c0,0.095-0.078,0.172-0.171,0.172
						c-0.096,0-0.174-0.077-0.174-0.172C6.208,6.999,6.286,6.922,6.382,6.922z"/>
					<path style="fill:#282828;" d="M9.949,0.982c0.162,0,0.293,0.131,0.293,0.293c0,0.163-0.131,0.294-0.293,0.294
						c-0.163,0-0.294-0.131-0.294-0.294C9.655,1.113,9.786,0.982,9.949,0.982z"/>
					<path style="fill:#282828;" d="M25.521,9.728c0.162,0,0.294,0.132,0.294,0.293c0,0.163-0.132,0.295-0.294,0.295
						s-0.294-0.132-0.294-0.295C25.228,9.859,25.359,9.728,25.521,9.728z"/>
					<path style="fill:#282828;" d="M19.605,18.246c0.164,0,0.295,0.132,0.295,0.294c0,0.163-0.131,0.294-0.295,0.294
						c-0.161,0-0.293-0.131-0.293-0.294C19.313,18.378,19.444,18.246,19.605,18.246z"/>
					<path style="fill:#282828;" d="M15.033,29.494c0.163,0,0.295,0.131,0.295,0.295c0,0.162-0.132,0.293-0.295,0.293
						c-0.163,0-0.294-0.131-0.294-0.293C14.739,29.625,14.87,29.494,15.033,29.494z"/>
					<path style="fill:#282828;" d="M23.911,28.219c0.161,0,0.293,0.131,0.293,0.293c0,0.163-0.132,0.295-0.293,0.295
						c-0.163,0-0.295-0.132-0.295-0.295C23.616,28.35,23.748,28.219,23.911,28.219z"/>
					<path style="fill:#282828;" d="M22.652,14.421c0.162,0,0.295,0.132,0.295,0.294c0,0.162-0.133,0.294-0.295,0.294
						c-0.162,0-0.294-0.132-0.294-0.294C22.358,14.553,22.49,14.421,22.652,14.421z"/>
					<path style="fill:#282828;" d="M10.275,18.3c0.311,0,0.565,0.253,0.565,0.564c0,0.312-0.254,0.564-0.565,0.564
						c-0.313,0-0.565-0.253-0.565-0.564C9.71,18.553,9.963,18.3,10.275,18.3z"/>
					<path style="fill:#282828;" d="M14.299,8.927c0.312,0,0.564,0.253,0.564,0.564s-0.253,0.563-0.564,0.563
						c-0.313,0-0.564-0.252-0.564-0.563S13.986,8.927,14.299,8.927z"/>
					<path style="fill:#282828;" d="M-0.454,12.737c0.311,0,0.564,0.252,0.564,0.564c0,0.313-0.254,0.564-0.564,0.564
						c-0.312,0-0.565-0.252-0.565-0.564C-1.02,12.989-0.767,12.737-0.454,12.737z"/>
					<path style="fill:#282828;" d="M21.447-2.962c0.312,0,0.564,0.253,0.564,0.564s-0.253,0.564-0.564,0.564
						c-0.313,0-0.565-0.253-0.565-0.564S21.135-2.962,21.447-2.962z"/>
				</g>
				<g>
					<g>
						<g>
							<g>
								<path style="fill:none;stroke:#444343;stroke-miterlimit:10;" d="M1.129,28.494"/>
							</g>
							<g>
								<path style="fill:#444343;" d="M21.59-5.813l-2.961,4.978l-1.44-4.978H21.59z M21.51-5.768h-4.26l1.393,4.818L21.51-5.768z"
									/>
							</g>
							<g>
								<path style="fill:#444343;" d="M11.781-5.813h0.523l-1.36,2.278l-0.041-0.021L11.781-5.813z M11.813-5.768l-0.766,1.976
									l1.177-1.976H11.813z"/>
							</g>
							<g>
								<path style="fill:#444343;" d="M12.251-5.813h4.985l1.434,4.956l-7.778-2.677L12.251-5.813z M17.203-5.768h-4.926
									L10.959-3.56l7.643,2.632L17.203-5.768z"/>
							</g>
							<g>
								<path style="fill:#444343;" d="M23.082,17.346l0.064,4.492l-5.713-3.594L23.082,17.346z M23.037,17.398l-5.476,0.871
									l5.538,3.484L23.037,17.398z"/>
							</g>
							<g>
								<path style="fill:#444343;" d="M23.158,17.38l-5.656,0.9l-0.024,0.003l-0.387-2.84L23.158,17.38z M22.961,17.365
									l-5.816-1.855l0.373,2.721L22.961,17.365z"/>
							</g>
							<g>
								<path style="fill:#444343;" d="M25.573,13.292l-2.493,4.093l-0.01,0.015l-6.033-1.926L25.573,13.292z M25.477,13.363
									l-8.274,2.115l5.847,1.867L25.477,13.363z"/>
							</g>
							<g>
								<path style="fill:#444343;" d="M17.776,7.039l-0.638,8.486l-6.544-6.101l-0.029-0.025L17.776,7.039z M17.727,7.104
									l-7.073,2.314l6.446,6.01L17.727,7.104z"/>
							</g>
							<g>
								<path style="fill:none;stroke:#444343;stroke-miterlimit:10;" d="M-1.02,4.543"/>
							</g>
							<g>
								<polygon style="fill:#444343;" points="-0.147,15.18 5.353,18.592 5.375,18.554 -0.123,15.141 								"/>
							</g>
							<g>
								<path style="fill:none;stroke:#444343;stroke-miterlimit:10;" d="M-0.134,15.16"/>
							</g>
							<g>
								<path style="fill:#444343;" d="M2.326,14.695l0.013-0.002l3.124,3.968l-5.659-3.513L2.326,14.695z M2.321,14.742
									l-2.394,0.43l5.337,3.313L2.321,14.742z"/>
							</g>
							<g>
								<path style="fill:none;stroke:#444343;stroke-miterlimit:10;" d="M-0.134,15.16"/>
							</g>
							<g>
								<path style="fill:#444343;" d="M14.971,1.207l2.812,5.878l-7.221,2.363L14.971,1.207z M14.968,1.307L10.656,9.37
									l7.063-2.313L14.968,1.307z"/>
							</g>
							<g>
								<path style="fill:#444343;" d="M13.242,0.935l0.006-0.02l1.758,0.324L10.63,9.42l-0.043-0.017L13.242,0.935z M13.279,0.967
									l-2.574,8.217l4.23-7.91L13.279,0.967z"/>
							</g>
							<g>
								<path style="fill:#444343;" d="M14.988,1.243l3.615,5.071l-0.859,0.794l-2.795-5.842L14.988,1.243z M18.541,6.31
									l-3.436-4.825l2.652,5.549L18.541,6.31z"/>
							</g>
							<g>
								<path style="fill:#444343;" d="M18.696,0.792l0.025-0.003l-0.128,5.594L14.93,1.238L18.696,0.792z M18.674,0.84
									l-3.663,0.436l3.541,4.968L18.674,0.84z"/>
							</g>
							<g>
								<path style="fill:#444343;" d="M15.027,1.29L13.26,0.963l-0.012-0.001L10.81-3.72L15.027,1.29z M14.91,1.222l-3.869-4.595
									l2.238,4.294L14.91,1.222z"/>
							</g>
							<g>
								<path style="fill:#444343;" d="M18.657-0.931l0.065,1.765l-3.857,0.458L18.657-0.931z M18.615-0.853l-3.539,2.073
									l3.598-0.426L18.615-0.853z"/>
							</g>
							<g>
								<path style="fill:#444343;" d="M18.643-0.914l0.048,0.017l-3.708,2.174l-0.018,0.01l-4.11-4.881L18.643-0.914z
									 M18.582-0.887l-7.585-2.61l3.977,4.723L18.582-0.887z"/>
							</g>
							<g>
								<path style="fill:#444343;" d="M18.678,0.738l3.832,6.067l0.026,0.042l-3.987-0.516L18.678,0.738z M18.721,0.891
									l-0.125,5.402l3.851,0.495L18.721,0.891z"/>
							</g>
							<g>
								<path style="fill:#444343;" d="M18.558,7.026l6.983,6.284l0.031,0.029l-8.48,2.168L18.558,7.026z M18.588,7.115l-1.44,8.33
									l8.329-2.129L18.588,7.115z"/>
							</g>
							<g>
								<path style="fill:#444343;" d="M17.729,7.047h0.872l-1.46,8.434l-0.044-0.006L17.729,7.047z M17.771,7.094l-0.595,7.91
									l1.369-7.91H17.771z"/>
							</g>
							<g>
								<path style="fill:#444343;" d="M22.488,6.796l0.016-0.001l3.088,6.625l-7.034-6.332l-0.04-0.035L22.488,6.796z
									 M22.478,6.842l-3.851,0.249l6.829,6.145L22.478,6.842z"/>
							</g>
							<g>
								<path style="fill:#444343;" d="M18.596,6.261v0.833h-0.904L18.596,6.261z M18.551,6.365l-0.742,0.682h0.742V6.365z"/>
							</g>
							<g>
								<path style="fill:#444343;" d="M22.493,6.796L22.492,6.84l-3.941,0.255V6.287L22.493,6.796z M22.253,6.811l-3.657-0.473
									v0.708L22.253,6.811z"/>
							</g>
							<g>
								<path style="fill:#444343;" d="M1.109,28.44l2.149,2.373H0.983L1.109,28.44z M1.149,28.551l-0.118,2.216h2.125L1.149,28.551
									z"/>
							</g>
							<g>
								<path style="fill:none;stroke:#444343;stroke-miterlimit:10;" d="M-1.02,4.543"/>
							</g>
							<g>
								<path style="fill:#444343;" d="M17.135,15.416l0.389,2.859l-2.795,0.52L17.135,15.416z M17.104,15.537l-2.272,3.193
									l2.641-0.492L17.104,15.537z"/>
							</g>
							<g>
								<path style="fill:#444343;" d="M17.135,15.459l0.014,0.014l-2.373,3.336l-4.233-9.493L17.135,15.459z M17.088,15.479
									l-6.411-5.976l4.107,9.214L17.088,15.479z"/>
							</g>
							<g>
								<path style="fill:#444343;" d="M8.784,7.17l1.985,2.397l-2.738-2.19L8.784,7.17z M8.77,7.224L8.131,7.396l2.319,1.856
									L8.77,7.224z"/>
							</g>
							<g>
								<path style="fill:#444343;" d="M13.328,0.812l-2.697,8.604l-0.012,0.04L8.747,7.197L13.328,0.812z M13.199,1.071
									L8.807,7.196L10.6,9.362L13.199,1.071z"/>
							</g>
							<g>
								<path style="fill:#444343;" d="M3.152-5.813l0.28,3.46l-3.854-3.46H3.152z M3.111-5.768h-3.413l3.68,3.303L3.111-5.768z"/>
							</g>
							<g>
								<path style="fill:#444343;" d="M3.426-2.42l5.385,9.633L8.069,7.414L3.384-2.399L3.426-2.42z M8.743,7.183L3.731-1.779
									l4.361,9.139L8.743,7.183z"/>
							</g>
							<g>
								<path style="fill:#444343;" d="M13.271,0.919l0.028,0.01L8.774,7.24l-5.42-9.689L13.271,0.919z M13.227,0.953L3.453-2.368
									l5.326,9.523L13.227,0.953z"/>
							</g>
							<g>
								<path style="fill:none;stroke:#444343;stroke-miterlimit:10;" d="M3.405-2.409"/>
							</g>
							<g>
								<path style="fill:#444343;" d="M10.922-3.568l0.016-0.004l2.373,4.553L3.398-2.388L3.308-2.417L10.922-3.568z M10.912-3.522
									L3.501-2.4L13.217,0.9L10.912-3.522z"/>
							</g>
							<g>
								<polygon style="fill:#444343;" points="-0.377,-5.772 3.389,-2.392 3.419,-2.426 -0.346,-5.807 								"/>
							</g>
							<g>
								<path style="fill:#444343;" d="M20.965,26.831l0.036-0.015l-0.344,3.976l-0.001,0.021h-4.974l-2.292-0.927L20.965,26.831z
									 M20.614,30.767l0.333-3.88l-7.433,2.999l2.174,0.881H20.614z"/>
							</g>
							<g>
								<path style="fill:#444343;" d="M20.955,26.803l1.309,1.244l-1.046,2.766H20.61L20.955,26.803z M22.211,28.059L20.992,26.9
									l-0.332,3.866h0.526L22.211,28.059z"/>
							</g>
							<g>
								<path style="fill:#444343;" d="M20.986,26.834l1.898,1.242h-0.655l-1.271-1.208L20.986,26.834z M22.73,28.029l-1.557-1.02
									l1.073,1.02H22.73z"/>
							</g>
							<g>
								<path style="fill:#444343;" d="M23.152,21.668l-0.324,6.426l-1.883-1.234L23.152,21.668z M23.094,21.924l-2.092,4.919
									l1.784,1.169L23.094,21.924z"/>
							</g>
							<g>
								<path style="fill:#444343;" d="M23.151,21.787l-2.178,5.125L17.449,18.2L23.151,21.787z M23.094,21.805l-5.548-3.49
									l3.429,8.478L23.094,21.805z"/>
							</g>
							<g>
								<path style="fill:#444343;" d="M17.513,18.231L21.058,27l-6.318-8.253L17.513,18.231z M17.484,18.283l-2.663,0.495
									l6.068,7.926L17.484,18.283z"/>
							</g>
							<g>
								<path style="fill:#444343;" d="M2.366,14.734l-2.521,0.453l-0.388-5.239L2.366,14.734z M2.294,14.701l-2.776-4.567
									l0.368,4.999L2.294,14.701z"/>
							</g>
							<g>
								<polygon style="fill:#444343;" points="-0.536,10.044 -0.157,15.162 -0.111,15.158 -0.491,10.04 								"/>
							</g>
							<g>
								<path style="fill:#444343;" d="M6.761,20.292l3.238,9.523l0.012,0.034l-8.885-1.332l-0.035-0.006L6.761,20.292z
									 M6.747,20.393L1.17,28.478l8.773,1.316L6.747,20.393z"/>
							</g>
							<g>
								<polygon style="fill:#444343;" points="1.11,28.482 1.149,28.508 6.773,20.355 6.736,20.33 								"/>
							</g>
							<g>
								<path style="fill:#444343;" d="M14.865,18.723l-3.681,3.035l-4.523-1.42L14.865,18.723z M14.695,18.803l-7.85,1.545
									l4.326,1.359L14.695,18.803z"/>
							</g>
							<g>
								<polygon style="fill:#444343;" points="5.347,18.588 6.736,20.356 6.771,20.328 5.383,18.559 								"/>
							</g>
							<g>
								<path style="fill:#444343;" d="M14.993,18.744l-8.234,1.621l-0.015,0.003L5.316,18.55L14.993,18.744z M14.567,18.781
									l-9.155-0.184l1.352,1.72L14.567,18.781z"/>
							</g>
							<g>
								<path style="fill:#444343;" d="M13.45,29.799l0.318,1.014h-0.555L13.45,29.799z M13.457,29.973l-0.186,0.794h0.435
									L13.457,29.973z"/>
							</g>
							<g>
								<path style="fill:#444343;" d="M15.801,30.813h-2.08l-0.304-0.967L15.801,30.813z M15.565,30.767l-2.077-0.842l0.267,0.842
									H15.565z"/>
							</g>
							<g>
								<path style="fill:#444343;" d="M12.068,25.207l1.406,4.672l0.011,0.03l-3.542-0.065L12.068,25.207z M12.059,25.337
									l-2.046,4.464l3.41,0.06L12.059,25.337z"/>
							</g>
							<g>
								<path style="fill:#444343;" d="M21.057,26.843l-7.596,3.063l-0.022,0.01l-1.408-4.673L21.057,26.843z M20.893,26.859
									l-8.797-1.559l1.374,4.555L20.893,26.859z"/>
							</g>
							<g>
								<path style="fill:#444343;" d="M12.091,25.267l-2.117,4.618l-3.24-9.535l-0.03-0.086L12.091,25.267z M12.035,25.277
									l-5.231-4.856l3.176,9.341L12.035,25.277z"/>
							</g>
							<g>
								<path style="fill:#444343;" d="M14.774,18.718l6.218,8.12l0.035,0.047l-8.997-1.596L14.774,18.718z M14.786,18.809
									l-2.691,6.445l8.826,1.566L14.786,18.809z"/>
							</g>
							<g>
								<path style="fill:#444343;" d="M11.196,21.715l0.907,3.626l-5.439-5.05L11.196,21.715z M11.158,21.75l-4.313-1.355
									l5.177,4.809L11.158,21.75z"/>
							</g>
							<g>
								<path style="fill:#444343;" d="M14.836,18.685l-2.779,6.659l-0.904-3.62L14.836,18.685z M14.725,18.84l-3.521,2.901
									l0.864,3.458L14.725,18.84z"/>
							</g>
							<g>
								<path style="fill:#444343;" d="M8.047,30.813h-4.85l-2.144-2.367L8.047,30.813z M7.769,30.767l-6.563-2.222l2.013,2.222
									H7.769z"/>
							</g>
							<g>
								<path style="fill:#444343;" d="M13.484,29.85l-0.225,0.963h-2.616L13.484,29.85z M13.421,29.92l-2.501,0.847h2.304
									L13.421,29.92z"/>
							</g>
							<g>
								<path style="fill:#444343;" d="M9.962,29.799l3.624,0.066l-2.797,0.946l-1.268,0.002L9.962,29.799z M13.321,29.906
									l-3.329-0.061l-0.4,0.921h1.188L13.321,29.906z"/>
							</g>
							<g>
								<path style="fill:#444343;" d="M1.133,28.473l8.878,1.332l-0.439,1.008H7.904l-6.782-2.295L1.133,28.473z M9.541,30.767
									l0.404-0.927l-8.564-1.284l6.531,2.211H9.541z"/>
							</g>
							<g>
								<path style="fill:none;stroke:#444343;stroke-miterlimit:10;" d="M-0.639,29.443"/>
							</g>
							<g>
								<path style="fill:#444343;" d="M4.692-5.813L3.391-2.305L3.106-5.813H4.692z M4.627-5.768H3.156l0.263,3.255L4.627-5.768z"
									/>
							</g>
							<g>
								<path style="fill:#444343;" d="M4.645-5.813h5.439l0.872,2.285L3.37-2.38L4.645-5.813z M10.052-5.768H4.676l-1.236,3.33
									l7.453-1.127L10.052-5.768z"/>
							</g>
							<g>
								<path style="fill:#444343;" d="M11.831-5.813l-0.906,2.329l-0.892-2.329H11.831z M11.765-5.768h-1.663l0.823,2.158
									L11.765-5.768z"/>
							</g>
							<g>
								<path style="fill:#444343;" d="M3.396-2.48l4.707,9.857L8.13,7.433L2.005,4.689L1.988,4.683L3.396-2.48z M3.414-2.336
									L2.04,4.655l5.994,2.686L3.414-2.336z"/>
							</g>
							<g>
								<path style="fill:#444343;" d="M6.479,11.175l0.007-0.043l8.354,7.654l-9.476-0.19H5.338L6.479,11.175z M6.518,11.224
									l-1.127,7.327l9.33,0.188L6.518,11.224z"/>
							</g>
							<g>
								<path style="fill:#444343;" d="M10.622,9.38l4.225,9.474l-8.361-7.658L6.46,11.172L10.622,9.38z M10.597,9.44l-4.054,1.746
									l8.171,7.484L10.597,9.44z"/>
							</g>
							<g>
								<path style="fill:#444343;" d="M6.534,11.121l-1.156,7.508l-3.065-3.898l-0.014-0.017L6.534,11.121z M6.47,11.235
									l-4.107,3.485l2.987,3.797L6.47,11.235z"/>
							</g>
							<g>
								<path style="fill:#444343;" d="M2.011,4.624l4.509,6.543l0.032,0.042l-7.069-1.145l-0.029-0.005L2.011,4.624z M2.018,4.716
									l-2.498,5.308l6.934,1.124L2.018,4.716z"/>
							</g>
							<g>
								<path style="fill:#444343;" d="M8.072,7.35l2.581,2.065l-4.195,1.808L8.072,7.35z M8.091,7.424l-1.546,3.711l4.02-1.731
									L8.091,7.424z"/>
							</g>
							<g>
								<path style="fill:#444343;" d="M8.091,7.366l0.02,0.01l-1.588,3.811l-0.015,0.04L1.996,4.683L1.949,4.615L8.091,7.366z
									 M8.052,7.398L2.079,4.724l4.418,6.408L8.052,7.398z"/>
							</g>
						</g>
					</g>
					<path style="fill:#282828;" d="M20.974,26.469c-0.244,0-0.442,0.198-0.442,0.443c0,0.244,0.198,0.442,0.442,0.442
						c0.244,0,0.442-0.198,0.442-0.442C21.416,26.667,21.218,26.469,20.974,26.469z"/>
					<path style="fill:#282828;" d="M17.162,14.977c-0.242,0-0.441,0.199-0.441,0.443c0,0.244,0.199,0.442,0.441,0.442
						c0.246,0,0.443-0.198,0.443-0.442C17.605,15.176,17.408,14.977,17.162,14.977z"/>
					<path style="fill:#282828;" d="M12.072,25.006c-0.193,0-0.35,0.157-0.35,0.352c0,0.193,0.156,0.351,0.35,0.351
						c0.194,0,0.351-0.157,0.351-0.351C12.423,25.163,12.267,25.006,12.072,25.006z"/>
					<path style="fill:#282828;" d="M23.155,21.404c-0.194,0-0.351,0.158-0.351,0.352c0,0.193,0.156,0.352,0.351,0.352
						c0.195,0,0.352-0.158,0.352-0.352C23.508,21.563,23.351,21.404,23.155,21.404z"/>
					<path style="fill:#282828;" d="M22.786,27.832c-0.1,0-0.18,0.08-0.18,0.18s0.08,0.18,0.18,0.18c0.099,0,0.179-0.08,0.179-0.18
						S22.885,27.832,22.786,27.832z"/>
					<path style="fill:#282828;" d="M22.271,27.958c-0.058,0-0.104,0.046-0.104,0.104s0.046,0.104,0.104,0.104
						c0.057,0,0.103-0.046,0.103-0.104S22.328,27.958,22.271,27.958z"/>
					<path style="fill:#282828;" d="M17.502,18.032c-0.137,0-0.248,0.11-0.248,0.248c0,0.136,0.111,0.247,0.248,0.247
						c0.137,0,0.247-0.111,0.247-0.247C17.749,18.143,17.639,18.032,17.502,18.032z"/>
					<path style="fill:#282828;" d="M23.08,17.148c-0.137,0-0.248,0.11-0.248,0.247c0,0.138,0.111,0.247,0.248,0.247
						c0.137,0,0.247-0.109,0.247-0.247C23.327,17.259,23.217,17.148,23.08,17.148z"/>
					<path style="fill:#282828;" d="M13.488,29.678c-0.136,0-0.246,0.111-0.246,0.247c0,0.137,0.11,0.247,0.246,0.247
						c0.138,0,0.249-0.11,0.249-0.247C13.737,29.789,13.626,29.678,13.488,29.678z"/>
					<path style="fill:#282828;" d="M18.657,0.428c-0.194,0-0.351,0.157-0.351,0.352c0,0.193,0.157,0.351,0.351,0.351
						c0.194,0,0.351-0.157,0.351-0.351C19.008,0.585,18.852,0.428,18.657,0.428z"/>
					<path style="fill:#282828;" d="M11.25,21.256c-0.245,0-0.442,0.199-0.442,0.443c0,0.244,0.197,0.443,0.442,0.443
						c0.244,0,0.443-0.199,0.443-0.443C11.693,21.455,11.494,21.256,11.25,21.256z"/>
					<path style="fill:#282828;" d="M6.812,20.087c-0.163,0-0.294,0.132-0.294,0.294s0.131,0.294,0.294,0.294
						c0.162,0,0.293-0.132,0.293-0.294S6.974,20.087,6.812,20.087z"/>
					<path style="fill:#282828;" d="M6.552,10.916c-0.163,0-0.295,0.132-0.295,0.293c0,0.164,0.132,0.296,0.295,0.296
						c0.161,0,0.293-0.132,0.293-0.296C6.845,11.048,6.713,10.916,6.552,10.916z"/>
					<path style="fill:#282828;" d="M2.006,4.356c-0.161,0-0.293,0.132-0.293,0.295c0,0.161,0.132,0.293,0.293,0.293
						c0.163,0,0.295-0.132,0.295-0.293C2.301,4.488,2.169,4.356,2.006,4.356z"/>
					<path style="fill:#282828;" d="M8.103,7.117c-0.162,0-0.294,0.131-0.294,0.293c0,0.163,0.132,0.294,0.294,0.294
						c0.163,0,0.294-0.131,0.294-0.294C8.396,7.248,8.266,7.117,8.103,7.117z"/>
					<path style="fill:#282828;" d="M10.956-3.843c-0.162,0-0.293,0.132-0.293,0.293c0,0.163,0.131,0.295,0.293,0.295
						c0.164,0,0.295-0.132,0.295-0.295C11.251-3.711,11.12-3.843,10.956-3.843z"/>
					<path style="fill:#282828;" d="M18.616-1.213c-0.163,0-0.295,0.132-0.295,0.293c0,0.163,0.132,0.295,0.295,0.295
						c0.161,0,0.293-0.132,0.293-0.295C18.909-1.081,18.777-1.213,18.616-1.213z"/>
					<path style="fill:#282828;" d="M13.209,0.663c-0.162,0-0.294,0.132-0.294,0.294s0.132,0.294,0.294,0.294
						c0.162,0,0.294-0.132,0.294-0.294S13.371,0.663,13.209,0.663z"/>
					<path style="fill:#282828;" d="M22.43,6.512c-0.16,0-0.295,0.132-0.295,0.293c0,0.163,0.135,0.295,0.295,0.295
						c0.164,0,0.295-0.132,0.295-0.295C22.725,6.644,22.594,6.512,22.43,6.512z"/>
					<path style="fill:#282828;" d="M18.559,6.069c-0.162,0-0.293,0.132-0.293,0.293c0,0.163,0.131,0.295,0.293,0.295
						c0.163,0,0.295-0.132,0.295-0.295C18.854,6.201,18.722,6.069,18.559,6.069z"/>
					<path style="fill:#282828;" d="M17.766,6.907c-0.094,0-0.172,0.078-0.172,0.173c0,0.096,0.078,0.171,0.172,0.171
						c0.096,0,0.172-0.075,0.172-0.171C17.938,6.985,17.861,6.907,17.766,6.907z"/>
					<path style="fill:#282828;" d="M18.621,6.922c-0.097,0-0.174,0.077-0.174,0.173c0,0.095,0.077,0.172,0.174,0.172
						c0.094,0,0.171-0.077,0.171-0.172C18.792,6.999,18.715,6.922,18.621,6.922z"/>
					<path style="fill:#282828;" d="M15.051,0.982c-0.163,0-0.295,0.131-0.295,0.293c0,0.163,0.132,0.294,0.295,0.294
						c0.163,0,0.295-0.131,0.295-0.294C15.346,1.113,15.214,0.982,15.051,0.982z"/>
					<path style="fill:#282828;" d="M-0.522,9.728c-0.161,0-0.293,0.132-0.293,0.293c0,0.163,0.132,0.295,0.293,0.295
						c0.164,0,0.296-0.132,0.296-0.295C-0.227,9.859-0.358,9.728-0.522,9.728z"/>
					<path style="fill:#282828;" d="M5.394,18.246c-0.163,0-0.295,0.132-0.295,0.294c0,0.163,0.132,0.294,0.295,0.294
						c0.162,0,0.294-0.131,0.294-0.294C5.688,18.378,5.556,18.246,5.394,18.246z"/>
					<path style="fill:#282828;" d="M9.966,29.494c-0.163,0-0.294,0.131-0.294,0.295c0,0.162,0.131,0.293,0.294,0.293
						c0.162,0,0.294-0.131,0.294-0.293C10.26,29.625,10.128,29.494,9.966,29.494z"/>
					<path style="fill:#282828;" d="M1.091,28.219c-0.163,0-0.295,0.131-0.295,0.293c0,0.163,0.132,0.295,0.295,0.295
						c0.161,0,0.293-0.132,0.293-0.295C1.384,28.35,1.252,28.219,1.091,28.219z"/>
					<path style="fill:#282828;" d="M2.349,14.421c-0.163,0-0.296,0.132-0.296,0.294c0,0.162,0.133,0.294,0.296,0.294
						c0.161,0,0.293-0.132,0.293-0.294C2.642,14.553,2.51,14.421,2.349,14.421z"/>
					<path style="fill:#282828;" d="M14.725,18.3c-0.313,0-0.565,0.253-0.565,0.564c0,0.312,0.253,0.564,0.565,0.564
						c0.312,0,0.564-0.253,0.564-0.564C15.288,18.553,15.036,18.3,14.725,18.3z"/>
					<path style="fill:#282828;" d="M10.7,8.927c-0.312,0-0.564,0.253-0.564,0.564s0.252,0.563,0.564,0.563
						c0.311,0,0.564-0.252,0.564-0.563S11.012,8.927,10.7,8.927z"/>
					<path style="fill:#282828;" d="M25.455,12.737c-0.313,0-0.566,0.252-0.566,0.564c0,0.313,0.254,0.564,0.566,0.564
						c0.312,0,0.564-0.252,0.564-0.564C26.02,12.989,25.767,12.737,25.455,12.737z"/>
					<path style="fill:#282828;" d="M3.553-2.962c-0.312,0-0.565,0.253-0.565,0.564s0.254,0.564,0.565,0.564
						c0.312,0,0.564-0.253,0.564-0.564S3.864-2.962,3.553-2.962z"/>
				</g>
			</g>
			<rect style="fill:none;" width="25" height="25"/>
		</g>
	</g>
</g>
</svg>
